<svg version="1.1" id="Layer_1" xmlns="http://www.w3.org/2000/svg" x="0" y="0" viewBox="0 0 476.7 367.8" style="enable-background:new 0 0 476.7 367.8" xml:space="preserve"><style>.st2{fill:#fff}.st4{fill:#101014}.st7{fill:#ff9e9b}.st21{fill:#fff;stroke:#003253;stroke-miterlimit:10}.st23{fill:#938ffd}.st26{fill:#ffb900}</style><path d="M47 335c-34.5-49.8-83.2-154.9 65.4-211.9 2.6-1 5.4-1.8 8.2-2.5 16.6-4 85.4-22.5 115.6-68.6 6.7-10.2 16.3-18 27.5-22.9 55-23.8 202-68.1 196.6 142.2-.1 2.5-.3 5-.7 7.5-3 20.4-18.8 113.8-60.9 162.1-12 13.8-29.5 21.6-47.7 21.6H99.4c-20.9 0-40.5-10.3-52.4-27.5z" style="fill:#e3ebff"/><linearGradient id="SVGID_1_" gradientUnits="userSpaceOnUse" x1="30.488" y1="151.088" x2="69.33" y2="151.088"><stop offset=".24" style="stop-color:#045684"/><stop offset=".912" style="stop-color:#003253"/></linearGradient><path d="M55.3 124.2c2.5.6 4.7 1.6 6.7 2.9 2 1.3 3.6 2.8 4.9 4.5 1.3 1.7 2.1 3.5 2.4 5.3.1.5 0 .9-.3 1.3s-.7.6-1.1.6l-6.2.8c-.7.1-1.2 0-1.5-.2-.3-.2-.6-.6-1-1.2-2.6-4.1-6.1-5.8-10.5-5.2-2.7.4-4.8 1.3-6.3 2.8-1.5 1.5-2.1 3.2-1.8 5.1.1 1.1.6 2 1.4 2.8.8.8 1.8 1.6 2.9 2.3 1.1.8 2.4 1.5 3.7 2.3 1.3.8 2.6 1.7 3.8 2.8 1.2 1.1 2.3 2.3 3.2 3.7.9 1.4 1.6 3.1 2 5.1.1.6 0 1.1-.4 1.5-.4.5-.8.7-1.4.8l-5.8.8c-.6.1-1-.1-1.5-.4-.4-.4-.7-.8-.9-1.4-.3-1.1-.9-2.1-1.8-3-.9-.9-2-1.7-3.1-2.4-1.2-.8-2.4-1.5-3.7-2.4-1.3-.8-2.5-1.8-3.7-2.9-1.2-1.1-2.2-2.3-3-3.7-.8-1.4-1.4-3.2-1.7-5.2-.3-2.5-.1-4.8.7-6.8.8-2.1 2-3.9 3.6-5.4 1.6-1.5 3.5-2.8 5.7-3.8s4.5-1.6 6.9-1.9c2.7-.3 5.3-.2 7.8.5zm1.6 42.6c.6-.1 1.1.1 1.5.4.5.4.7.8.8 1.4l.9 6.7c.1.6-.1 1.1-.4 1.5-.4.5-.8.7-1.4.8l-6.6.9c-.6.1-1.1-.1-1.5-.4-.5-.4-.7-.8-.8-1.4l-.9-6.7c-.1-.6.1-1.1.4-1.5.4-.5.8-.7 1.4-.8l6.6-.9z" style="fill:url(#SVGID_1_)"/><path class="st2" d="M42.5 278.9c.7 3.2 1.8 6.3 3.1 9.3.4.9 1.5 1.5 2.5 1.2l10.6-2.4c1.1 1.8 2.3 3.5 3.7 5.2l-5.8 9.2c-.6.9-.4 2 .4 2.7 4.8 4.5 10.4 8 16.6 10.4 1 .4 2.1 0 2.6-.9l5.8-9.2c2 .5 4.1.9 6.2 1l2.4 10.6c.2 1 1.1 1.7 2.2 1.7 3.3-.1 6.6-.5 9.8-1.2 3.2-.7 6.3-1.8 9.3-3.1.9-.4 1.5-1.5 1.2-2.5l-2.4-10.6c1.8-1.1 3.5-2.3 5.2-3.7l9.2 5.8c.9.6 2 .4 2.7-.4 4.5-4.8 8-10.4 10.4-16.6.4-1 0-2.1-.9-2.6l-9.2-5.8c.5-2 .9-4.1 1-6.2l10.6-2.4c1-.2 1.7-1.1 1.7-2.2-.1-3.3-.5-6.6-1.2-9.8-.7-3.2-1.8-6.3-3.1-9.3-.4-.9-1.5-1.5-2.5-1.2l-10.6 2.4c-1.1-1.8-2.3-3.5-3.7-5.2l5.8-9.2c.6-.9.4-2-.3-2.7-4.8-4.5-10.4-8-16.6-10.4-1-.4-2.1 0-2.6.9l-5.8 9.2c-2-.5-4.1-.9-6.2-1l-2.4-10.6c-.2-1-1.1-1.7-2.2-1.7-6.6.2-13 1.7-19.1 4.4-.9.4-1.5 1.5-1.2 2.5l2.4 10.6c-1.8 1.1-3.5 2.3-5.2 3.7l-9.2-5.8c-.9-.5-2-.4-2.7.4-4.5 4.8-8 10.4-10.4 16.6-.4 1 0 2.1.9 2.6l9.2 5.8c-.5 2-.9 4.1-1 6.2L43 267c-1 .2-1.7 1.1-1.7 2.2.1 3.3.5 6.6 1.2 9.7zm35.8-19.3c2.2-3.5 5.6-5.9 9.6-6.8.8-.2 1.6-.3 2.4-.4 6.5-.5 12.9 3.5 15.3 9.6 1.8 4.7 1.4 9.7-1.2 13.9-2.6 4.2-7 6.8-12 7.2-6.5.5-12.9-3.6-15.3-9.6-1.9-4.6-1.4-9.7 1.2-13.9z"/><path class="st2" d="M3.5 343.9c1.5 1.5 3.1 2.9 4.8 4.1.5.4 1.3.3 1.8-.2l5-4.9c1.2.6 2.4 1.2 3.7 1.6l-.1 7c0 .7.5 1.2 1.1 1.4 4.2.9 8.4.9 12.6.2.7-.1 1.1-.7 1.1-1.4l.1-7c1.3-.4 2.6-.9 3.8-1.5l4.9 5c.5.5 1.2.6 1.8.2 1.8-1.2 3.4-2.5 4.9-3.9 1.5-1.5 2.9-3.1 4.1-4.8.4-.5.3-1.3-.1-1.8l-4.9-5c.6-1.2 1.2-2.5 1.6-3.7l7 .1c.7 0 1.2-.4 1.4-1.1.9-4.2.9-8.4.2-12.6-.1-.7-.7-1.1-1.4-1.1l-7-.1c-.4-1.3-.9-2.6-1.5-3.8l5-4.9c.5-.5.6-1.2.2-1.8-1.2-1.8-2.5-3.4-3.9-4.9-1.5-1.5-3.1-2.9-4.8-4.1-.5-.4-1.3-.3-1.8.1l-5 4.9c-1.2-.6-2.5-1.2-3.7-1.6l.1-7c0-.7-.5-1.2-1.1-1.4-4.2-.9-8.4-.9-12.6-.2-.7.1-1.1.7-1.1 1.4l-.1 7c-1.3.4-2.6.9-3.8 1.5l-4.9-5c-.5-.5-1.2-.6-1.8-.2-3.6 2.3-6.6 5.3-9 8.8-.4.5-.3 1.3.1 1.8l4.9 5c-.6 1.2-1.2 2.4-1.6 3.7l-7-.1c-.7 0-1.2.5-1.4 1.1-.9 4.2-.9 8.4-.2 12.6.1.7.7 1.1 1.4 1.1l7 .1c.4 1.3.9 2.6 1.5 3.8l-5 4.9c-.5.5-.6 1.2-.2 1.8 1.2 1.7 2.5 3.4 3.9 4.9zm13.2-22.6c0-2.7 1.1-5.1 3-6.9.4-.4.8-.7 1.2-1 3.4-2.4 8.3-2.4 11.6.2 2.6 1.9 4 4.9 4 8.1 0 3.2-1.6 6.1-4.2 8-3.4 2.4-8.3 2.4-11.6-.2-2.6-2.1-4-5-4-8.2z" style="opacity:.2"/><circle transform="rotate(-45.001 139.177 176.354)" class="st4" cx="139.2" cy="176.4" r="19.8"/><linearGradient id="SVGID_2_" gradientUnits="userSpaceOnUse" x1="58.924" y1="300.336" x2="282.634" y2="300.336"><stop offset=".24" style="stop-color:#045684"/><stop offset=".912" style="stop-color:#003253"/></linearGradient><path d="m280.3 338.7-52.7-85.6c-4-6.5-12-9-18.8-6.3-24.1-11.2-52-11.2-76.1 0-6.8-2.6-14.8-.1-18.8 6.3l-52.7 85.6c-2.9 4.8-3.1 10.8-.3 15.7 2.7 4.9 7.9 8 13.6 8h192.7c5.6 0 10.8-3 13.6-8 2.6-4.9 2.5-11-.5-15.7zm-158.7-38.8v31.4h-19.3l19.3-31.4zm98.4 31.4v-31.4l19.3 31.4H220z" style="fill:url(#SVGID_2_)"/><linearGradient id="SVGID_3_" gradientUnits="userSpaceOnUse" x1="156.984" y1="232.216" x2="184.574" y2="232.216"><stop offset=".24" style="stop-color:#ffdc30"/><stop offset=".912" style="stop-color:#ffc800"/></linearGradient><path d="M173.2 262.4h-4.9c-6.3 0-11.4-5.1-11.4-11.4v-49h27.6v49c.1 6.3-5 11.4-11.3 11.4z" style="fill:url(#SVGID_3_)"/><path class="st7" d="M173.2 256.6h-4.9c-6.3 0-11.4-5.1-11.4-11.4v-49h27.6v49c.1 6.3-5 11.4-11.3 11.4z"/><path d="M157 230c0 7.6 6.2 13.8 13.8 13.8 7.6 0 13.8-6.2 13.8-13.8v-30.2H157V230z" style="opacity:.5;fill:#ff9e9b"/><linearGradient id="SVGID_4_" gradientUnits="userSpaceOnUse" x1="110.033" y1="349.921" x2="159.152" y2="349.921"><stop offset=".24" style="stop-color:#ffdc30"/><stop offset=".912" style="stop-color:#ffc800"/></linearGradient><path d="M159.2 362.3H110v-.2c0-13.6 11-24.6 24.6-24.6 13.6 0 24.6 11 24.6 24.6v.2z" style="fill:url(#SVGID_4_)"/><path class="st7" d="M168.7 231.9c-16.1-1.3-28.2-15.4-26.8-31.6l3.7-46L204 159l-3.7 46c-1.3 16.2-15.5 28.2-31.6 26.9z"/><ellipse class="st4" cx="167.1" cy="191" rx="1.9" ry="2.2"/><ellipse class="st4" cx="190.6" cy="191" rx="1.9" ry="2.2"/><path class="st2" d="M162.2 207.5c-.3 3.5 1.4 6.9 4.4 8.5 3.1 1.6 6.8 1 9.5-1.3l-13.9-7.2z"/><path class="st7" d="M164.7 362.3h-44.8v-.2c0-12.4 10-22.4 22.4-22.4 12.4 0 22.4 10 22.4 22.4v.2z"/><linearGradient id="SVGID_5_" gradientUnits="userSpaceOnUse" x1="141.085" y1="354.798" x2="170.891" y2="354.798"><stop offset=".24" style="stop-color:#045684"/><stop offset=".912" style="stop-color:#003253"/></linearGradient><path d="M170.9 362.3h-29.8v-2.8c0-6.8 5.5-12.3 12.3-12.3h5.3c6.8 0 12.3 5.5 12.3 12.3v2.8z" style="fill:url(#SVGID_5_)"/><radialGradient id="SVGID_6_" cx="255.531" cy="356.95" r="55.903" gradientUnits="userSpaceOnUse"><stop offset=".245" style="stop-color:#e1e1e1"/><stop offset=".912" style="stop-color:#d3d1d1"/></radialGradient><path d="M323.7 362.3H187.4c-5.9 0-10.8-4.8-10.8-10.8h157.8c0 6-4.8 10.8-10.7 10.8z" style="fill:url(#SVGID_6_)"/><path d="M337.5 351.6h-109c-3.1 0-5.4-2.9-4.7-5.9l16.6-71.2c.5-2.2 2.4-3.7 4.7-3.7h109c3.1 0 5.4 2.9 4.7 5.9l-16.6 71.2c-.5 2.1-2.5 3.7-4.7 3.7z" style="fill:#5142b2"/><radialGradient id="SVGID_7_" cx="295.074" cy="311.218" r="55.643" gradientUnits="userSpaceOnUse"><stop offset=".245" style="stop-color:#e1e1e1"/><stop offset=".912" style="stop-color:#d3d1d1"/></radialGradient><path d="M341.3 351.6h-109c-3.1 0-5.4-2.9-4.7-5.9l16.6-71.2c.5-2.2 2.4-3.7 4.7-3.7h109c3.1 0 5.4 2.9 4.7 5.9L346 347.9c-.6 2.1-2.5 3.7-4.7 3.7z" style="fill:url(#SVGID_7_)"/><linearGradient id="SVGID_8_" gradientUnits="userSpaceOnUse" x1="283.614" y1="311.219" x2="308.905" y2="311.219"><stop offset=".24" style="stop-color:#045684"/><stop offset=".912" style="stop-color:#003253"/></linearGradient><circle cx="296.3" cy="311.2" r="12.6" style="fill:url(#SVGID_8_)"/><path class="st4" d="M171.5 128.5c19.2-2.6 37.3 13.5 40.3 36l-69.6 9.4c-3-22.5 10.1-42.8 29.3-45.4z"/><path class="st4" d="M200.4 179.5c-7.3 1-14-4.1-15-11.4l26.3-3.6c1.1 7.3-4 14-11.3 15z"/><path class="st4" d="M173.8 175.4c-12.9 5.6-26.1 3.7-29.5-4.2l46.7-20.1c3.4 7.9-4.3 18.8-17.2 24.3z"/><path class="st7" d="M131 191.8c-1.3 5.7 2.3 11.4 8 12.7 5.7 1.3 11.4-2.3 12.7-8 1.3-5.7-2.3-11.4-8-12.7s-11.4 2.3-12.7 8z"/><path d="M176.2 189.5s1.8 11.7 6.2 15.7c-4.2 1.9-5.1 0-5.1 0" style="opacity:.5;fill:none;stroke:#ff9e9b;stroke-width:.9114;stroke-miterlimit:10"/><path class="st4" d="M190.2 183.5c1.3-.1 2.6 0 3.8.5.7.3 1.5.1 1.9-.6.4-.6 0-1.6-1-1.9-1.6-.6-3.3-.8-5.1-.7-1 .1-1.6.9-1.4 1.6.3.7 1.1 1.2 1.8 1.1zM167.2 182.4c-1.3-.1-2.6 0-3.8.5-.7.3-1.5.1-1.9-.6-.4-.6 0-1.6 1-1.9 1.6-.6 3.3-.8 5.1-.7 1 .1 1.6.9 1.4 1.6-.3.8-1 1.2-1.8 1.1z"/><circle transform="rotate(-65.196 143.322 151.095)" class="st4" cx="143.3" cy="151.1" r="10.6"/><path class="st4" d="M183.3 152.6c1.3 9.5 10 16.1 19.5 14.9 9.5-1.3 16.1-10 14.9-19.5-1.3-9.5-10-16.1-19.5-14.9-9.6 1.3-16.2 10.1-14.9 19.5z"/><linearGradient id="SVGID_9_" gradientUnits="userSpaceOnUse" x1="136.285" y1="194.15" x2="146.494" y2="194.15"><stop offset=".24" style="stop-color:#045684"/><stop offset=".912" style="stop-color:#003253"/></linearGradient><path d="M136.4 193c-.6 2.7 1.1 5.5 3.9 6.1 2.7.6 5.5-1.1 6.1-3.9.6-2.7-1.1-5.5-3.9-6.1-2.7-.5-5.5 1.2-6.1 3.9z" style="fill:url(#SVGID_9_)"/><path d="M153.8 214.9c-4.9-.5-9.3-3.7-11.3-8.2-1.8-4-1.3-8.4-1-12.7" style="fill:none;stroke:#fff;stroke-width:1.7126;stroke-linecap:round;stroke-linejoin:round;stroke-miterlimit:10"/><linearGradient id="SVGID_10_" gradientUnits="userSpaceOnUse" x1="152.669" y1="215.347" x2="162.887" y2="215.347"><stop offset=".24" style="stop-color:#045684"/><stop offset=".912" style="stop-color:#003253"/></linearGradient><path d="m152.7 217.2 7.9.6c1.2.1 2.3-.8 2.4-2 .1-1.2-.8-2.3-2-2.4l-7.9-.6-.4 4.4z" style="fill:url(#SVGID_10_)"/><path d="M138.4 193.5c-.4 1.7.7 3.4 2.4 3.8 1.7.4 3.4-.7 3.8-2.4.4-1.7-.7-3.4-2.4-3.8-1.7-.4-3.4.7-3.8 2.4z" style="fill:none;stroke:#fff;stroke-width:.2441;stroke-linecap:round;stroke-linejoin:round;stroke-miterlimit:10"/><g style="opacity:.4"><path class="st21" d="m242.5 245.2 47.5 14.3-17.3-28.6z"/><path class="st21" d="m290 259.5 8.7-28.7-47.5-14.4-8.7 28.8"/><path class="st21" d="m276.2 236.7 22.5-5.9-8.7 28.7M266.6 233.8l-15.4-17.4-8.7 28.8"/></g><linearGradient id="SVGID_11_" gradientUnits="userSpaceOnUse" x1="7.508" y1="367.936" x2="466.489" y2="367.936"><stop offset=".24" style="stop-color:#045684"/><stop offset=".912" style="stop-color:#003253"/></linearGradient><path d="M10.5 372.9h452.9c1.7 0 3-2.2 3-4.9s-1.4-4.9-3-4.9H10.5c-1.7 0-3 2.2-3 4.9s1.4 4.9 3 4.9z" style="fill:url(#SVGID_11_)"/><path class="st23" d="M375.6 317.9h.1c0 2.9 2.3 5.2 5.2 5.2v.1c-2.9 0-5.2 2.3-5.2 5.2h-.1c0-2.9-2.3-5.2-5.2-5.2v-.1c2.9 0 5.2-2.4 5.2-5.2zM107.3 121.1h.1c0 2.9 2.3 5.2 5.2 5.2v.1c-2.9 0-5.2 2.3-5.2 5.2h-.1c0-2.9-2.3-5.2-5.2-5.2v-.1c2.9 0 5.2-2.3 5.2-5.2zM390.4 308.8c0 .9.7 1.6 1.6 1.6s1.6-.7 1.6-1.6-.7-1.6-1.6-1.6-1.6.8-1.6 1.6z"/><circle class="st23" cx="307" cy="83.5" r="1.6"/><path class="st23" d="M343.6 183.8c0 .9.7 1.6 1.6 1.6.9 0 1.6-.7 1.6-1.6 0-.9-.7-1.6-1.6-1.6-.8 0-1.6.8-1.6 1.6z"/><circle class="st23" cx="118.8" cy="116.4" r="1.6"/><path class="st23" d="M77.2 106.8c0 .9.7 1.6 1.6 1.6.9 0 1.6-.7 1.6-1.6 0-.9-.7-1.6-1.6-1.6-.8 0-1.6.7-1.6 1.6zM36.5 168.6c0 .9.7 1.6 1.6 1.6.9 0 1.6-.7 1.6-1.6 0-.9-.7-1.6-1.6-1.6-.8 0-1.6.7-1.6 1.6z"/><g><path d="M331.5 212.9c-.2 1.4-.2 2.8-.1 4.3 0 .4.4.8.8.9l4.7.5c.2.9.4 1.8.8 2.6l-3.7 2.9c-.4.3-.5.8-.2 1.2 1.3 2.6 3.1 4.8 5.3 6.6.3.3.8.3 1.2 0l3.7-2.9c.8.5 1.6.9 2.4 1.3l-.5 4.7c-.1.4.2.9.6 1 1.4.4 2.8.7 4.2.9 1.4.2 2.8.2 4.3.1.4 0 .8-.4.9-.8l.5-4.7c.9-.2 1.8-.4 2.6-.8l2.9 3.7c.3.4.8.5 1.2.2 2.6-1.3 4.8-3.1 6.6-5.3.3-.3.3-.8 0-1.2l-2.9-3.7c.5-.8.9-1.6 1.3-2.4l4.7.5c.4.1.9-.2 1-.6.4-1.4.7-2.8.9-4.2.2-1.4.2-2.8.1-4.3 0-.4-.4-.8-.8-.9l-4.7-.5c-.2-.9-.4-1.8-.8-2.6l3.7-2.9c.4-.3.5-.8.3-1.2-1.3-2.6-3.1-4.8-5.3-6.6-.3-.3-.8-.3-1.2 0l-3.7 2.9c-.8-.5-1.6-.9-2.4-1.3l.5-4.7c.1-.4-.2-.9-.6-1-2.7-.9-5.6-1.2-8.4-1-.4 0-.8.4-.9.8l-.5 4.7c-.9.2-1.8.4-2.6.8l-2.9-3.7c-.3-.4-.8-.5-1.2-.2-2.6 1.3-4.8 3.1-6.6 5.3-.3.3-.3.8 0 1.2l2.9 3.7c-.5.8-.9 1.6-1.3 2.4l-4.7-.5c-.4-.1-.9.2-1 .6-.6 1.4-.9 2.8-1.1 4.2zm17.5-2.8c1.4-1.1 3.1-1.6 4.9-1.4.3 0 .7.1 1 .2 2.7.7 4.8 3.3 4.9 6.1.1 2.2-.8 4.2-2.5 5.5-1.7 1.3-3.9 1.8-6 1.2-2.7-.7-4.8-3.3-4.9-6.1 0-2.1.9-4.1 2.6-5.5z" style="fill:#fa7201"/></g><linearGradient id="SVGID_12_" gradientUnits="userSpaceOnUse" x1="281.574" y1="142.874" x2="343.485" y2="142.874"><stop offset=".24" style="stop-color:#045684"/><stop offset=".912" style="stop-color:#003253"/></linearGradient><path d="M281.6 140.4v5c.1.9.3 1.8.4 2.7 2.1 13 12.7 23.4 25.8 25.4 1.1.2 2.2.3 3.2.4h3c.2-.1.4-.1.6-.1 1.3-.2 2.7-.3 4-.5 16.2-3.4 26.7-18.3 24.5-34.7-1.8-13.4-12.5-24.2-25.9-26.2-1.1-.2-2.2-.3-3.2-.4h-3c-1.1.1-2.2.3-3.2.4-12.5 1.9-22.8 11.5-25.5 23.9-.3 1.2-.5 2.7-.7 4.1zm11.6 11.7c.4-.4 8.1-6.3 9-6.6.5-.2 1.4-.2 2.4.7.4.4 3.4 4.3 3.5 4.5l.2.2s.1 0 .2-.1c.5-.2 4-2.4 5.9-4.5 1.9-2.1 3.8-5.8 4-6.3v-.2l-.2-.2c-.2-.1-4.4-2.7-4.8-3.1-1-.9-1-1.7-.9-2.3.2-.9 5.4-9.2 5.7-9.6.8-1.1 1.9-.7 2.4-.5.5.2 5 2.3 6.1 3.3 1.2 1.1 1.7 2.6 1.7 3.8 0 1.5-2.4 11.8-9.3 19.4-6.9 7.6-16.9 10.9-18.4 11h-.3c-1.1 0-2.5-.3-3.6-1.4-1.1-1-3.6-5.3-3.9-5.8-.2-.4-.7-1.4.3-2.3z" style="fill:url(#SVGID_12_)"/><path class="st23" d="M321.7 85h.1c0 3.3 2.7 6 6 6v.1c-3.3 0-6 2.7-6 6h-.1c0-3.3-2.7-6-6-6V91c3.3 0 6-2.7 6-6zM405.1 160.4h.1c0 3.3 2.7 6 6 6v.1c-3.3 0-6 2.7-6 6h-.1c0-3.3-2.7-6-6-6v-.1c3.3 0 6-2.7 6-6z"/><path class="st26" d="M242.7 86.5c.1-.2.3-.4.5-.4h5.2l1.6-5c.1-.2.3-.4.5-.4s.4.1.5.4l1.6 5h5.2c.2 0 .4.1.5.4.1.2 0 .5-.2.6l-4.2 3.1 1.6 5c.1.2 0 .5-.2.6-.2.1-.4.1-.6 0l-4.2-3.1-4.2 3.1c-.1.1-.2.1-.3.1-.1 0-.2 0-.3-.1-.2-.1-.3-.4-.2-.6l1.6-5-4.2-3.1c-.2-.1-.3-.4-.2-.6zM219.1 86.5c.1-.2.3-.4.5-.4h5.2l1.6-5c.1-.2.3-.4.5-.4s.4.1.5.4l1.6 5h5.2c.2 0 .4.1.5.4.1.2 0 .5-.2.6l-4.2 3.1 1.6 5c.1.2 0 .5-.2.6-.2.1-.4.1-.6 0l-4.2-3.1-4.2 3.1c-.1.1-.2.1-.3.1-.1 0-.2 0-.3-.1-.2-.1-.3-.4-.2-.6l1.6-5-4.2-3.1c-.2-.1-.3-.4-.2-.6zM195.5 86.5c.1-.2.3-.4.5-.4h5.2l1.6-5c.1-.2.3-.4.5-.4s.4.1.5.4l1.6 5h5.2c.2 0 .4.1.5.4.1.2 0 .5-.2.6l-4.2 3.1 1.6 5c.1.2 0 .5-.2.6-.2.1-.4.1-.6 0l-4.2-3.1-4.2 3.1c-.1.1-.2.1-.3.1-.1 0-.2 0-.3-.1-.2-.1-.3-.4-.2-.6l1.6-5-4.2-3.1c-.2-.1-.3-.4-.2-.6zM171.9 86.5c.1-.2.3-.4.5-.4h5.2l1.6-5c.1-.2.3-.4.5-.4s.4.1.5.4l1.6 5h5.2c.2 0 .4.1.5.4.1.2 0 .5-.2.6l-4.2 3.1 1.6 5c.1.2 0 .5-.2.6-.2.1-.4.1-.6 0l-4.2-3.1-4.2 3.1c-.1.1-.2.1-.3.1-.1 0-.2 0-.3-.1-.2-.1-.3-.4-.2-.6l1.6-5-4.2-3.1c-.2-.1-.3-.4-.2-.6z"/></svg>