<svg width="328" height="262" viewBox="0 0 328 262" fill="none" xmlns="http://www.w3.org/2000/svg">
<path d="M322.559 74.1773C318.905 75.9361 314.52 74.3197 312.873 70.6162L301.186 44.2952C299.452 40.3873 294.715 38.8514 291.017 40.9881L270.01 53.1267C266.139 55.3624 261.185 53.5602 259.655 49.355L245.559 10.5981" stroke="#FDD900" stroke-width="10" stroke-miterlimit="10" stroke-linecap="round"/>
<path d="M238.877 16.5623L244.246 7L254.335 10.9265" stroke="#FDD900" stroke-width="10" stroke-miterlimit="10"/>
<path opacity="0.5" d="M282.229 200.654L326.826 174.866L230.107 119.065L185.622 144.823L282.229 200.654Z" fill="url(#paint0_linear)"/>
<path d="M274.692 76.2581V162.145L259.828 170.71L244.965 162.139V76.2581H274.692Z" fill="url(#paint1_linear)"/>
<path d="M244.965 76.4004L259.828 84.9717L274.692 76.4128L259.841 67.8167L244.965 76.4004Z" fill="url(#paint2_linear)"/>
<path d="M297 123.574V174.959L282.136 183.518L267.273 174.946V123.574H297Z" fill="url(#paint3_linear)"/>
<path d="M267.285 123.568L282.149 132.133L297.012 123.574L282.155 114.978L267.285 123.568Z" fill="#FDD900"/>
<path d="M244.965 41.9478V145.027L230.101 153.592L215.238 145.021V41.9478H244.965Z" fill="url(#paint4_linear)"/>
<path d="M215.269 42.0593L230.132 50.6307L244.996 42.0717L230.145 33.4756L215.269 42.0593Z" fill="url(#paint5_linear)"/>
<path d="M282.136 183.517L281.913 183.647L163.264 252.193L148.271 243.554L267.273 174.946" fill="url(#paint6_linear)"/>
<path d="M260.262 170.685L260.039 170.815L141.39 239.362L126.396 230.722L245.398 162.114" fill="url(#paint7_linear)"/>
<path d="M230.931 152.874L230.708 153.004L112.059 221.55L97.0657 212.91L216.068 144.302" fill="url(#paint8_linear)"/>
<path d="M21.2086 128.881C21.2356 128.908 21.2626 128.962 21.2896 129.016C21.3706 129.151 21.3976 129.286 21.3976 129.421V174.32C21.3976 174.131 21.3436 173.969 21.2086 173.807L20.3175 172.754C20.2905 172.727 20.2635 172.673 20.2365 172.646C20.1555 172.511 20.1284 172.403 20.1284 172.268V127.342C20.1284 127.504 20.1825 127.666 20.3175 127.828L21.2086 128.881Z" fill="#666666" stroke="black" stroke-width="0.01" stroke-miterlimit="10"/>
<path d="M72.3151 128.962L73.4222 127.909C73.5842 127.747 73.6652 127.585 73.6652 127.423V172.323C73.6652 172.458 73.6112 172.566 73.5302 172.701C73.5032 172.728 73.4762 172.782 73.4222 172.809L72.3151 173.862C72.1531 174.024 72.0721 174.213 72.0721 174.375V129.475C72.0721 129.34 72.1261 129.205 72.2071 129.07C72.2611 129.043 72.2881 129.016 72.3151 128.962Z" fill="#666666" stroke="black" stroke-width="0.01" stroke-miterlimit="10"/>
<path d="M86.2114 138.703L87.9376 138.055C88.5316 137.812 88.8556 137.434 88.8556 137.083V176.235C87.8566 174.912 86.6164 173.78 85.1584 172.862V139.889C85.1584 139.432 85.5634 138.973 86.2114 138.703Z" fill="#999999" stroke="black" stroke-width="0.01" stroke-miterlimit="10"/>
<path d="M31.3013 133.091C41.7703 129.772 53.8324 129.961 64.1393 133.793C70.6159 136.222 77.6036 140.916 77.7116 148.527C77.8196 157.539 77.7656 166.552 77.7386 175.536H15.4879C15.3799 166.388 15.3259 157.215 15.6229 148.095C15.8929 139.917 24.4467 135.249 31.3013 133.091Z" fill="#999999" stroke="black" stroke-width="0.01" stroke-miterlimit="10"/>
<path d="M36.1848 149.145C36.2388 149.334 36.3198 149.523 36.4278 149.712C36.4818 149.793 36.5358 149.874 36.5898 149.982C36.8058 150.306 37.0488 150.658 37.3729 150.982C37.5079 151.117 37.6699 151.252 37.8319 151.36C37.9669 151.468 38.0749 151.576 38.2099 151.657C38.3719 151.765 38.5609 151.873 38.7229 151.981C38.8579 152.062 38.993 152.17 39.155 152.251C39.182 152.278 39.236 152.278 39.263 152.305C39.695 152.521 40.154 152.737 40.6401 152.899C40.7751 152.953 40.9101 153.007 41.0181 153.034C41.5311 153.223 42.0712 153.385 42.6363 153.493C42.6633 153.493 42.6633 153.493 42.6903 153.493C43.2303 153.628 43.8243 153.709 44.3895 153.763C44.5515 153.79 44.6865 153.79 44.8485 153.817C45.4425 153.871 46.0636 153.925 46.6827 153.925C48.4629 153.925 50.299 153.682 51.9712 153.142C55.4525 152.035 57.3947 150.038 57.3947 147.961V183.335H35.9958V147.988C35.9958 148.258 36.0498 148.555 36.1038 148.825C36.1308 148.956 36.1578 149.064 36.1848 149.145Z" fill="#666666" stroke="black" stroke-width="0.01" stroke-miterlimit="10"/>
<path d="M41.3923 142.885C43.0645 142.345 44.8736 142.102 46.6808 142.102C50.3781 142.102 53.9925 143.182 55.9636 145.098C58.8779 147.931 57.0977 151.547 51.9423 153.192C50.2701 153.705 48.461 153.975 46.6538 153.975C42.9295 153.975 39.3151 152.895 37.344 151.007C34.4586 148.12 36.2388 144.478 41.3923 142.885Z" fill="#F2F2F2" stroke="black" stroke-width="0.01" stroke-miterlimit="10"/>
<path d="M0.18961 149.928C0.270615 150.036 0.378617 150.117 0.486623 150.198C0.513624 150.225 0.540625 150.252 0.594628 150.279C0.702635 150.333 0.837637 150.387 0.999647 150.441C1.08065 150.468 1.13465 150.495 1.21566 150.522C1.43167 150.576 1.67469 150.63 1.9447 150.63L4.0219 150.738C4.26491 150.738 4.50792 150.792 4.75093 150.846V136.869C4.75093 137.058 4.83194 137.22 4.96694 137.382C4.99395 137.409 4.99395 137.409 4.99395 137.436C5.15596 137.598 5.34497 137.733 5.64198 137.868L7.34115 138.516C7.42215 138.543 7.53016 138.597 7.61117 138.624C7.63817 138.651 7.66517 138.651 7.69217 138.678C7.77318 138.732 7.85418 138.786 7.90818 138.84C7.93518 138.867 7.98919 138.894 8.01619 138.921C8.04319 138.948 8.04319 138.948 8.0702 138.975C8.1242 139.029 8.1512 139.056 8.1782 139.11C8.2052 139.137 8.2322 139.164 8.2592 139.218C8.2592 139.245 8.25921 139.245 8.28621 139.272C8.36721 139.407 8.39421 139.542 8.39421 139.677V177.966H8.20521V176.67C8.20521 176.508 8.1512 176.373 8.0702 176.211C7.90819 175.968 7.77318 175.725 7.61117 175.482C7.44916 175.212 7.34115 174.969 7.20614 174.699C7.12513 174.51 7.01714 174.348 6.93613 174.159C6.66612 173.565 6.4231 172.998 6.26109 172.405C6.20709 172.27 6.12608 172.135 6.01808 172.027L5.99107 172.001C5.85607 171.866 5.69406 171.757 5.50505 171.649C5.37005 171.568 5.20803 171.541 5.07302 171.487C4.99201 171.46 4.91102 171.406 4.83002 171.406C4.587 171.352 4.31699 171.298 4.04697 171.298L1.96978 171.19C1.69976 171.163 1.45674 171.136 1.24073 171.082C1.15973 171.055 1.10573 171.028 1.02472 171.001C0.889713 170.947 0.781705 170.92 0.673699 170.866C0.646698 170.866 0.646707 170.839 0.646707 170.839C0.619705 170.812 0.592704 170.785 0.538701 170.758C0.457696 170.704 0.376693 170.65 0.32269 170.596C0.295688 170.569 0.268678 170.515 0.241677 170.488C0.214675 170.461 0.214681 170.461 0.18768 170.434C0.18768 170.407 0.160672 170.407 0.133671 170.38C0.0796679 170.272 0.0256653 170.164 0.0256653 170.029V149.467C0.0256653 149.602 0.0796707 149.737 0.160675 149.872C0.162604 149.874 0.162609 149.901 0.18961 149.928Z" fill="#666666" stroke="black" stroke-width="0.01" stroke-miterlimit="10"/>
<path d="M87.0216 152.06C87.2106 151.493 88.2096 150.953 89.2608 150.899L91.365 150.818C92.4451 150.764 93.3072 150.251 93.3342 149.63L93.3612 146.607V146.58V167.142V167.169L93.3342 170.191C93.3072 170.785 92.4431 171.299 91.365 171.38L89.2608 171.461C88.2077 171.515 87.2106 172.028 87.0216 172.622C86.5895 173.918 85.9685 175.212 85.1334 176.454C85.0254 176.589 84.9984 176.751 84.9984 176.913V156.351C84.9984 156.189 85.0524 156.027 85.1334 155.892C85.9415 154.65 86.5895 153.356 87.0216 152.06Z" fill="#666666" stroke="black" stroke-width="0.01" stroke-miterlimit="10"/>
<path d="M4.776 159.56L7.47425 162.205V182.739L4.776 180.095C4.722 180.041 4.66799 179.96 4.61399 179.879V179.852C4.55998 179.744 4.50598 179.636 4.50598 179.501V158.939C4.50598 159.047 4.53298 159.155 4.61399 159.29C4.64099 159.398 4.695 159.479 4.776 159.56Z" fill="#999999" stroke="black" stroke-width="0.01" stroke-miterlimit="10"/>
<path d="M83.7291 162.934C84.4582 162.934 85.1853 162.718 85.5633 162.367L88.3426 159.722C88.5316 159.533 88.6126 159.344 88.6126 159.155V179.717C88.6126 179.906 88.5316 180.122 88.3426 180.311L85.5633 182.955C85.1853 183.306 84.4563 183.522 83.7291 183.522C83.4051 183.522 83.1081 183.495 82.8111 183.414L80.8959 182.928V162.367L82.8111 162.853C83.0811 162.907 83.4051 162.934 83.7291 162.934Z" fill="#999999" stroke="black" stroke-width="0.01" stroke-miterlimit="10"/>
<path d="M8.3653 162.636C8.66232 162.717 8.98634 162.771 9.33736 162.771C9.63438 162.771 9.9314 162.744 10.2284 162.663L12.1436 162.177C12.4406 162.096 12.7647 162.069 13.0887 162.069C13.4397 162.069 13.8177 162.123 14.1418 162.204C14.2498 162.231 14.3308 162.285 14.4388 162.312C14.6278 162.366 14.8168 162.42 14.9518 162.501C15.0058 162.528 15.0598 162.555 15.1138 162.582C15.9779 163.149 16.894 163.689 17.8121 164.201C18.5681 164.606 19.3222 165.011 20.1053 165.362C20.1323 165.389 20.1863 165.389 20.2133 165.416C20.3753 165.497 20.5103 165.605 20.6183 165.713C20.6453 165.74 20.6723 165.794 20.7263 165.848C20.7533 165.875 20.7803 165.902 20.7803 165.929C20.8073 165.956 20.8343 165.983 20.8613 166.037C20.9423 166.199 20.9963 166.361 20.9963 166.523V187.058C20.9963 186.869 20.9153 186.653 20.7803 186.464C20.7533 186.436 20.7533 186.41 20.7263 186.383C20.5643 186.193 20.3753 186.031 20.1053 185.896C19.4032 185.572 18.7031 185.221 18.0551 184.87C17.9741 184.816 17.8931 184.762 17.8121 184.735C16.867 184.222 15.9779 183.682 15.1138 183.117C14.9248 183.009 14.6818 182.928 14.4388 182.847C14.3308 182.82 14.2498 182.766 14.1418 182.739C13.8177 182.658 13.4397 182.604 13.0887 182.604C12.7647 182.604 12.4406 182.631 12.1436 182.712L10.2284 183.198C9.9584 183.279 9.66138 183.306 9.33736 183.306C8.98634 183.306 8.68932 183.252 8.3653 183.171C8.2843 183.144 8.20329 183.117 8.12228 183.09C8.01428 183.063 7.87927 183.036 7.79826 182.982C7.66325 182.928 7.55525 182.847 7.47424 182.739V162.177C7.63625 162.339 7.87927 162.447 8.14929 162.528C8.20329 162.582 8.2843 162.609 8.3653 162.636Z" fill="#666666" stroke="black" stroke-width="0.01" stroke-miterlimit="10"/>
<path d="M72.8552 165.497C74.7164 164.66 76.3905 163.717 77.9277 162.745C78.4137 162.42 79.1698 162.231 79.9239 162.231C80.2749 162.231 80.5989 162.258 80.8959 162.339V182.901C80.5989 182.82 80.2749 182.793 79.9239 182.793C79.1678 182.793 78.3867 182.982 77.9277 183.306C76.3905 184.305 74.7164 185.222 72.8552 186.059C72.2612 186.329 71.9371 186.761 71.9371 187.166V166.604C71.9371 166.199 72.2612 165.767 72.8552 165.497Z" fill="#666666" stroke="black" stroke-width="0.01" stroke-miterlimit="10"/>
<path d="M19.9143 169.114C19.9413 169.141 19.9413 169.168 19.9683 169.195C19.9953 169.222 20.0493 169.276 20.1033 169.303C20.1573 169.357 20.2383 169.411 20.3193 169.438C20.4273 169.492 20.5624 169.573 20.7244 169.627L25.4728 171.164C25.7968 171.272 26.1479 171.299 26.5259 171.299C27.2009 171.299 27.903 171.137 28.3061 170.813V191.375C27.9011 191.699 27.226 191.861 26.5259 191.861C26.1749 191.861 25.7968 191.807 25.4728 191.726L20.7244 190.189C20.5894 190.135 20.4543 190.08 20.3463 190.026C20.3463 190.026 20.3193 190.027 20.3193 190C20.2383 189.946 20.1843 189.891 20.1033 189.864C20.0763 189.837 20.0223 189.81 19.9683 189.783C19.9683 189.783 19.9683 189.783 19.9683 189.756C19.9413 189.729 19.9143 189.702 19.9143 189.675C19.8873 189.621 19.8333 189.594 19.8063 189.54V189.513C19.7523 189.405 19.6983 189.297 19.6983 189.162V168.601C19.6983 168.709 19.7253 168.844 19.8063 168.952C19.8063 168.979 19.8603 169.033 19.9143 169.114Z" fill="#999999" stroke="black" stroke-width="0.01" stroke-miterlimit="10"/>
<path d="M65.1924 171.19C65.2734 171.217 65.3544 171.244 65.4355 171.271C65.7325 171.352 66.0295 171.379 66.3535 171.379C66.7045 171.379 67.0556 171.325 67.3526 171.244L72.128 169.707C72.8031 169.491 73.1811 169.086 73.1811 168.681V189.243C73.1811 189.648 72.7761 190.053 72.128 190.269L67.3526 191.806C67.0556 191.887 66.7045 191.941 66.3535 191.941C66.0295 191.941 65.7325 191.887 65.4355 191.833C65.3544 191.806 65.2734 191.779 65.1924 191.752C65.0574 191.698 64.9224 191.671 64.8144 191.617C64.7064 191.563 64.6254 191.509 64.5444 191.455L63.3563 190.51V169.948L64.5444 170.893C64.7334 171.001 64.9764 171.082 65.1924 171.19Z" fill="#999999" stroke="black" stroke-width="0.01" stroke-miterlimit="10"/>
<path d="M31.5985 169.275C31.8685 169.275 32.1655 169.302 32.4085 169.356C34.6478 169.815 36.941 170.166 39.2901 170.409C39.5601 170.436 39.8032 170.49 40.0192 170.544C40.1002 170.571 40.1542 170.598 40.2352 170.625C40.3702 170.679 40.5052 170.706 40.6132 170.787C40.6402 170.787 40.6402 170.814 40.6402 170.814C40.6942 170.841 40.7482 170.895 40.8022 170.922C40.8832 170.976 40.9913 171.03 41.0453 171.084C41.0723 171.111 41.0722 171.138 41.0993 171.165C41.1263 171.192 41.1533 171.219 41.1533 171.246C41.1803 171.273 41.2073 171.327 41.2343 171.354C41.2883 171.435 41.3153 171.543 41.3423 171.624V192.186C41.3153 192.051 41.2613 191.916 41.1533 191.808C41.1263 191.781 41.0993 191.754 41.0993 191.727C41.0182 191.646 40.9102 191.565 40.8022 191.484C40.7482 191.457 40.6942 191.403 40.6402 191.376C40.5052 191.295 40.3702 191.241 40.2082 191.187C40.1272 191.16 40.0732 191.133 39.9922 191.106C39.7492 191.025 39.5062 190.971 39.2631 190.971C36.9159 190.728 34.6227 190.377 32.3815 189.918C32.1115 189.864 31.8415 189.837 31.5715 189.837C30.7614 189.837 29.9263 190.053 29.4673 190.404L28.2522 191.349V170.787L29.4673 169.842C29.9514 169.464 30.7884 169.275 31.5985 169.275Z" fill="#666666" stroke="black" stroke-width="0.01" stroke-miterlimit="10"/>
<path d="M53.5625 170.434C55.8827 170.218 58.2029 169.867 60.4441 169.435C60.7141 169.381 60.9841 169.354 61.2811 169.354C61.5781 169.354 61.8752 169.381 62.1722 169.435C62.2262 169.435 62.2802 169.462 62.3342 169.462C62.6042 169.516 62.8472 169.597 63.0632 169.705C63.0902 169.705 63.0902 169.705 63.1172 169.732C63.2253 169.786 63.3063 169.84 63.3873 169.921V190.483C63.3063 190.402 63.1712 190.348 63.0632 190.294C62.8472 190.186 62.6042 190.105 62.3342 190.051C62.2802 190.051 62.2262 190.024 62.1722 190.024C61.8752 189.97 61.5781 189.943 61.2811 189.943C60.9841 189.943 60.7141 189.97 60.4441 190.024C58.1779 190.483 55.8846 190.807 53.5625 191.023C52.5094 191.104 51.5393 191.671 51.4583 192.238L51.2693 193.426V172.864L51.4583 171.676C51.5373 171.082 52.4824 170.515 53.5625 170.434Z" fill="#666666" stroke="black" stroke-width="0.01" stroke-miterlimit="10"/>
<path d="M41.7165 173.186C41.7435 173.213 41.7435 173.213 41.7705 173.24C41.8785 173.348 42.0405 173.456 42.2025 173.565C42.3375 173.619 42.4725 173.672 42.6345 173.726C42.7155 173.753 42.7695 173.78 42.8505 173.807C43.0936 173.861 43.3636 173.888 43.6336 173.888L49.1111 173.915C50.1912 173.915 51.1613 173.429 51.2423 172.835V193.397C51.1613 193.991 50.1892 194.477 49.1111 194.477L43.6336 194.45C43.3636 194.45 43.0936 194.423 42.8505 194.369C42.7695 194.342 42.6885 194.315 42.6345 194.288C42.4725 194.234 42.3375 194.207 42.2025 194.126H42.1755C42.0405 194.045 41.9055 193.964 41.7975 193.856C41.7705 193.829 41.7705 193.829 41.7705 193.802C41.7435 193.775 41.7435 193.775 41.7165 193.748C41.6895 193.694 41.6355 193.667 41.6085 193.613C41.5545 193.532 41.5275 193.451 41.5275 193.343L41.3654 192.182V171.62L41.5275 172.781C41.5545 172.916 41.6085 173.051 41.7165 173.186Z" fill="#999999" stroke="black" stroke-width="0.01" stroke-miterlimit="10"/>
<path d="M0.0276206 146.393L0.000616052 149.442C-0.0263857 150.036 0.837668 150.549 1.91581 150.63L3.99302 150.738C5.04609 150.792 6.04322 151.305 6.20523 151.899C6.61025 153.196 7.20429 154.49 8.01241 155.705C8.36344 156.272 7.98542 157.001 7.09436 157.323L5.36818 157.971C4.47712 158.322 4.18011 158.997 4.72014 159.535L7.41838 162.18C7.79641 162.558 8.55245 162.747 9.27957 162.747C9.57659 162.747 9.8736 162.72 10.1706 162.639L12.0858 162.152C12.3828 162.071 12.7069 162.044 13.0309 162.044C13.7869 162.044 14.5681 162.234 15.0541 162.558C16.5913 163.584 18.2654 164.527 20.0726 165.364C20.8826 165.769 21.2336 166.498 20.7476 167.036L19.8295 168.089C19.3705 168.629 19.7485 169.304 20.6666 169.626L25.415 171.163C25.7391 171.271 26.0901 171.298 26.4681 171.298C27.1431 171.298 27.8452 171.136 28.2483 170.812L29.4634 169.867C29.9224 169.489 30.7594 169.3 31.5676 169.3C31.8376 169.3 32.1346 169.327 32.3776 169.381C34.6168 169.84 36.9101 170.191 39.2592 170.434C40.3123 170.542 41.2554 171.082 41.3364 171.676L41.4984 172.838C41.5794 173.432 42.5515 173.918 43.6296 173.918L49.1071 173.945C50.1872 173.945 51.1573 173.459 51.2383 172.865L51.4274 171.676C51.5084 171.109 52.4804 170.542 53.5316 170.461C55.8518 170.245 58.172 169.894 60.4131 169.462C60.6832 169.408 60.9532 169.381 61.2502 169.381C62.0603 169.381 62.8954 169.597 63.3274 169.948L64.5155 170.893C64.9205 171.217 65.6226 171.406 66.2957 171.406C66.6467 171.406 66.9977 171.353 67.2947 171.272L72.0702 169.734C73.0152 169.437 73.3933 168.762 72.9342 168.224L72.0702 167.144C71.6112 166.604 71.9352 165.875 72.7722 165.499C74.6334 164.662 76.3075 163.719 77.8447 162.747C78.3307 162.423 79.0868 162.233 79.8409 162.233C80.1919 162.233 80.5159 162.261 80.813 162.342L82.7282 162.828C83.0252 162.909 83.3222 162.936 83.6462 162.936C84.3753 162.936 85.1024 162.72 85.4804 162.369L88.2867 159.724C88.8267 159.211 88.5567 158.509 87.6656 158.187L85.9394 157.512C85.0754 157.161 84.6974 156.432 85.0754 155.894C85.8854 154.652 86.5316 153.385 86.9636 152.088C87.1526 151.521 88.1516 150.981 89.2028 150.927L91.307 150.846C92.3871 150.792 93.2492 150.279 93.2762 149.658L93.3032 146.636C93.3302 146.042 92.4391 145.502 91.388 145.448L89.3108 145.34C88.2307 145.286 87.2606 144.773 87.0716 144.179C86.6936 142.91 86.0725 141.616 85.2914 140.346C84.9134 139.779 85.3184 139.077 86.2094 138.728L87.9356 138.08C88.8267 137.729 89.0967 137.054 88.5837 136.543L85.8854 133.899C85.4804 133.521 84.7514 133.305 83.9972 133.305C83.7002 133.305 83.4032 133.332 83.1332 133.413L81.218 133.899C80.921 133.98 80.5969 134.007 80.2729 134.007C79.5169 134.007 78.7088 133.818 78.2497 133.494C76.7126 132.468 75.0384 131.525 73.2313 130.687C72.4212 130.282 72.0972 129.58 72.5562 129.042L73.4743 127.989C73.9333 127.422 73.5553 126.747 72.6372 126.452L67.8888 124.915C67.5648 124.807 67.2137 124.753 66.8357 124.753C66.1607 124.753 65.4586 124.915 65.0555 125.239L63.8404 126.184C63.3814 126.562 62.5444 126.751 61.7362 126.751C61.4392 126.751 61.1692 126.724 60.8992 126.67C58.66 126.211 56.3667 125.86 54.0176 125.644C52.9645 125.509 52.0214 124.996 51.9404 124.375L51.7514 123.214C51.6704 122.62 50.7253 122.107 49.6472 122.107H44.1697C43.0896 122.107 42.1195 122.593 42.0115 123.187L41.8225 124.348C41.7144 124.942 40.7694 125.482 39.7182 125.59C37.398 125.806 35.0778 126.157 32.8367 126.589C32.5936 126.643 32.3236 126.643 32.0536 126.643C31.2166 126.643 30.3544 126.427 29.8954 126.049L28.7073 125.104C28.3023 124.78 27.6272 124.591 26.9541 124.591C26.6031 124.591 26.2251 124.645 25.9011 124.753L21.1256 126.263C20.1806 126.56 19.8025 127.235 20.2346 127.8L21.1256 128.853C21.5577 129.393 21.2336 130.122 20.4236 130.498C18.5624 131.336 16.8883 132.279 15.3511 133.278C14.8651 133.602 14.109 133.764 13.3549 133.764C13.0039 133.764 12.6799 133.737 12.3558 133.656L10.4406 133.17C10.1706 133.089 9.87361 133.062 9.57659 133.062C8.84755 133.062 8.09342 133.278 7.7154 133.656L4.93615 136.273C4.39612 136.786 4.66613 137.488 5.55719 137.837L7.25637 138.485C8.14743 138.836 8.52545 139.565 8.14742 140.104C7.31037 141.346 6.69126 142.613 6.25924 143.909C6.07022 144.476 5.09816 145.016 3.99302 145.07L1.88881 145.151C0.918677 145.259 0.0546224 145.799 0.0276206 146.393ZM31.3014 133.091C36.1849 131.553 41.4734 130.824 46.7078 130.824C57.4738 130.824 67.9428 133.928 73.6363 139.486C82.109 147.743 76.9286 158.266 62.0333 162.99C57.1768 164.527 51.8883 165.256 46.6538 165.256C35.8609 165.256 25.3919 162.126 19.6714 156.567C11.2256 148.308 16.4331 137.785 31.3014 133.091Z" fill="#E6E6E6" stroke="black" stroke-width="0.01" stroke-miterlimit="10"/>
<path d="M123.69 95.5833C123.717 95.6373 123.771 95.6644 123.798 95.7184C123.879 95.8534 123.933 96.0154 123.933 96.1774V146.717C123.933 146.501 123.852 146.312 123.717 146.123L122.691 144.962C122.664 144.908 122.637 144.881 122.61 144.827C122.529 144.692 122.502 144.557 122.502 144.395V93.8552C122.502 94.0442 122.583 94.2333 122.718 94.3953L123.69 95.5833Z" fill="#666666" stroke="black" stroke-width="0.01" stroke-miterlimit="10"/>
<path d="M181.246 95.6914L182.488 94.5032C182.677 94.3142 182.758 94.1251 182.758 93.9631V144.503C182.758 144.638 182.704 144.8 182.596 144.935C182.569 144.989 182.515 145.017 182.488 145.071L181.246 146.259C181.057 146.448 180.976 146.637 180.976 146.853V96.2584C180.976 96.0964 181.03 95.9613 181.138 95.7993C181.165 95.7723 181.192 95.7184 181.246 95.6914Z" fill="#666666" stroke="black" stroke-width="0.01" stroke-miterlimit="10"/>
<path d="M196.869 106.646L198.811 105.89C199.459 105.62 199.837 105.215 199.837 104.783V155.323C199.837 155.755 199.459 156.16 198.811 156.43L196.869 157.186C196.113 157.483 195.681 157.996 195.681 158.508V107.968C195.682 107.483 196.14 106.943 196.869 106.646Z" fill="#999999" stroke="black" stroke-width="0.01" stroke-miterlimit="10"/>
<path d="M135.077 100.307C146.869 96.5825 160.441 96.7714 172.044 101.117C179.356 103.842 187.21 109.131 187.316 117.711C187.478 129.935 187.316 142.158 187.316 154.355C187.316 158.779 187.316 163.206 187.316 167.63C187.316 160.156 179.95 154.976 173.77 152.357C166.916 149.442 159.307 148.254 151.887 148.308C143.442 148.362 134.564 150.007 127.171 154.272C122.315 157.078 117.404 161.691 117.404 167.736C117.404 150.925 116.864 134.034 117.404 117.223C117.701 108.024 127.333 102.762 135.077 100.307Z" fill="#999999" stroke="black" stroke-width="0.01" stroke-miterlimit="10"/>
<path d="M140.554 118.384C140.635 118.6 140.716 118.816 140.824 119.032C140.878 119.14 140.932 119.221 140.986 119.329C141.229 119.707 141.499 120.086 141.877 120.437C142.039 120.599 142.228 120.734 142.39 120.869C142.525 120.977 142.66 121.112 142.822 121.22C143.011 121.355 143.2 121.463 143.417 121.571C143.579 121.679 143.741 121.787 143.903 121.868C143.93 121.895 143.984 121.895 144.011 121.922C144.497 122.165 145.01 122.408 145.548 122.597C145.683 122.651 145.845 122.705 145.98 122.759C146.574 122.948 147.168 123.137 147.814 123.272C147.841 123.272 147.868 123.272 147.868 123.272C148.489 123.407 149.137 123.515 149.783 123.596C149.945 123.623 150.134 123.623 150.296 123.65C150.971 123.704 151.673 123.758 152.346 123.758C154.37 123.758 156.395 123.488 158.283 122.894C162.196 121.652 164.381 119.385 164.381 117.065V167.605C164.381 169.925 162.196 172.191 158.283 173.433C156.395 174.027 154.37 174.297 152.346 174.297C151.644 174.297 150.969 174.243 150.296 174.189C150.134 174.162 149.945 174.162 149.783 174.135C149.135 174.054 148.487 173.946 147.868 173.811C147.841 173.811 147.814 173.811 147.814 173.811C147.166 173.676 146.572 173.487 145.98 173.271C145.818 173.217 145.683 173.163 145.548 173.109C145.008 172.893 144.495 172.677 144.011 172.434C143.984 172.407 143.957 172.407 143.93 172.407C143.93 172.407 143.903 172.407 143.903 172.38C143.741 172.299 143.579 172.191 143.417 172.083C143.227 171.948 143.011 171.84 142.822 171.732C142.66 171.624 142.525 171.489 142.39 171.381C142.228 171.246 142.066 171.138 141.931 171.003C141.904 170.976 141.904 170.976 141.877 170.949C141.499 170.598 141.229 170.22 140.986 169.842C140.959 169.788 140.905 169.761 140.878 169.707C140.851 169.653 140.851 169.599 140.797 169.545C140.689 169.329 140.581 169.113 140.527 168.897C140.5 168.789 140.446 168.708 140.419 168.6C140.338 168.276 140.284 167.979 140.284 167.655V117.142C140.284 117.466 140.338 117.763 140.419 118.087C140.473 118.195 140.527 118.303 140.554 118.384Z" fill="#666666" stroke="black" stroke-width="0.01" stroke-miterlimit="10"/>
<path d="M146.41 111.343C148.298 110.749 150.35 110.452 152.374 110.452C156.555 110.452 160.603 111.667 162.815 113.825C166.108 117.009 164.085 121.083 158.31 122.919C156.422 123.513 154.397 123.783 152.374 123.783C148.192 123.783 144.117 122.568 141.905 120.437C138.612 117.252 140.635 113.15 146.41 111.343Z" fill="#F2F2F2" stroke="black" stroke-width="0.01" stroke-miterlimit="10"/>
<path d="M100.027 119.276C100.108 119.384 100.243 119.492 100.378 119.573C100.405 119.6 100.459 119.627 100.486 119.654C100.621 119.735 100.783 119.789 100.945 119.843C101.026 119.87 101.08 119.897 101.188 119.924C101.431 120.005 101.728 120.032 101.998 120.059L104.345 120.167C104.615 120.167 104.912 120.221 105.155 120.302V104.598C105.155 104.814 105.236 105.003 105.398 105.192C105.425 105.219 105.425 105.219 105.452 105.246C105.614 105.435 105.857 105.597 106.181 105.732L108.096 106.488C108.204 106.515 108.285 106.57 108.393 106.624C108.42 106.651 108.447 106.677 108.474 106.677C108.555 106.731 108.636 106.785 108.717 106.839C108.744 106.866 108.798 106.894 108.826 106.921C108.853 106.948 108.853 106.975 108.88 106.975C108.934 107.029 108.961 107.082 109.015 107.136C109.042 107.163 109.069 107.218 109.096 107.245C109.096 107.272 109.096 107.299 109.123 107.299C109.204 107.461 109.258 107.623 109.258 107.758V158.297C109.258 158.135 109.204 157.973 109.123 157.838C109.096 157.784 109.069 157.757 109.042 157.703V176.807C109.042 176.645 108.988 176.456 108.88 176.294C108.69 176.024 108.528 175.754 108.366 175.484C108.204 175.187 108.069 174.89 107.907 174.593C107.799 174.377 107.691 174.188 107.583 173.972C107.286 173.324 107.016 172.649 106.8 171.975C106.746 171.813 106.638 171.678 106.53 171.543C106.53 171.543 106.503 171.516 106.503 171.489C106.368 171.354 106.179 171.219 105.963 171.111C105.828 171.03 105.639 170.976 105.477 170.922C105.396 170.895 105.315 170.841 105.207 170.814C104.937 170.733 104.64 170.679 104.343 170.679L101.996 170.571C101.699 170.544 101.429 170.517 101.186 170.436C101.105 170.409 101.024 170.382 100.943 170.355C100.808 170.301 100.646 170.274 100.538 170.193C100.511 170.193 100.511 170.166 100.484 170.166C100.43 170.139 100.403 170.112 100.376 170.085C100.295 170.031 100.187 169.977 100.133 169.923C100.106 169.896 100.079 169.842 100.025 169.788C99.9978 169.761 99.9979 169.734 99.9709 169.707C99.9709 169.68 99.9438 169.68 99.9168 169.653C99.8358 169.545 99.8088 169.41 99.8088 169.275V118.763C99.8088 118.925 99.8628 119.06 99.9709 119.195C99.9998 119.222 100.027 119.249 100.027 119.276Z" fill="#666666" stroke="black" stroke-width="0.01" stroke-miterlimit="10"/>
<path d="M197.787 121.676C198.003 121.028 199.11 120.434 200.296 120.38L202.67 120.299C203.885 120.218 204.855 119.651 204.882 118.978L204.909 115.551V115.524V166.064V166.091L204.882 169.491C204.855 170.166 203.883 170.76 202.67 170.812L200.296 170.893C199.108 170.974 198.003 171.541 197.787 172.189C197.301 173.646 196.598 175.104 195.655 176.479C195.547 176.641 195.493 176.83 195.493 176.992V126.506C195.493 126.317 195.547 126.155 195.655 125.993C196.571 124.591 197.301 123.133 197.787 121.676Z" fill="#666666" stroke="black" stroke-width="0.01" stroke-miterlimit="10"/>
<path d="M105.18 130.123L108.229 133.091V183.63L105.18 180.662C105.099 180.581 105.045 180.5 104.991 180.419V180.392C104.937 180.257 104.883 180.149 104.883 180.014V129.448C104.883 129.583 104.937 129.691 104.991 129.826C105.045 129.934 105.099 130.015 105.18 130.123Z" fill="#999999" stroke="black" stroke-width="0.01" stroke-miterlimit="10"/>
<path d="M194.062 133.928C194.899 133.928 195.708 133.685 196.113 133.28L199.243 130.312C199.459 130.123 199.54 129.88 199.54 129.664V180.203C199.54 180.419 199.432 180.662 199.243 180.851L196.113 183.819C195.681 184.225 194.87 184.468 194.062 184.468C193.711 184.468 193.36 184.414 193.036 184.333L190.878 183.766V133.253L193.036 133.82C193.36 133.901 193.711 133.928 194.062 133.928Z" fill="#999999" stroke="black" stroke-width="0.01" stroke-miterlimit="10"/>
<path d="M109.256 133.577C109.607 133.658 109.958 133.739 110.336 133.739C110.687 133.739 111.011 133.712 111.335 133.631L113.466 133.064C113.79 132.983 114.168 132.929 114.546 132.929C114.951 132.929 115.356 132.983 115.734 133.064C115.869 133.091 115.95 133.145 116.058 133.172C116.274 133.226 116.49 133.28 116.652 133.388C116.706 133.415 116.76 133.442 116.814 133.496C117.786 134.144 118.81 134.738 119.863 135.33C120.7 135.789 121.563 136.248 122.454 136.651C122.481 136.678 122.535 136.678 122.562 136.705C122.751 136.813 122.886 136.921 123.021 137.029C123.075 137.083 123.102 137.137 123.129 137.164C123.156 137.191 123.183 137.218 123.21 137.245C123.237 137.272 123.291 137.326 123.291 137.353C123.399 137.515 123.453 137.704 123.453 137.893V188.433C123.453 188.217 123.345 188.001 123.21 187.785C123.183 187.758 123.156 187.731 123.129 187.704C122.967 187.515 122.724 187.326 122.427 187.164C121.644 186.786 120.862 186.408 120.106 186.003C119.998 185.949 119.917 185.895 119.836 185.841C118.783 185.247 117.759 184.653 116.787 184.007C116.598 183.872 116.301 183.791 116.031 183.71C115.923 183.683 115.815 183.629 115.707 183.602C115.329 183.521 114.924 183.467 114.519 183.467C114.141 183.467 113.79 183.494 113.439 183.602L111.308 184.169C110.984 184.25 110.66 184.277 110.309 184.277C109.931 184.277 109.553 184.223 109.229 184.115C109.121 184.088 109.04 184.061 108.959 184.007C108.824 183.953 108.688 183.926 108.58 183.872C108.445 183.791 108.31 183.71 108.202 183.602V133.089C108.391 133.251 108.661 133.386 108.959 133.494C109.067 133.523 109.148 133.55 109.256 133.577Z" fill="#666666" stroke="black" stroke-width="0.01" stroke-miterlimit="10"/>
<path d="M181.84 136.789C183.944 135.844 185.835 134.792 187.561 133.685C188.101 133.307 188.963 133.118 189.8 133.118C190.178 133.118 190.556 133.172 190.907 133.253V183.792C190.583 183.711 190.205 183.657 189.8 183.657C188.963 183.657 188.074 183.873 187.561 184.224C185.835 185.332 183.944 186.383 181.84 187.328C181.192 187.625 180.814 188.111 180.814 188.597V138.058C180.787 137.597 181.192 137.111 181.84 136.789Z" fill="#666666" stroke="black" stroke-width="0.01" stroke-miterlimit="10"/>
<path d="M122.234 140.862C122.261 140.889 122.288 140.916 122.315 140.943C122.369 140.997 122.423 141.024 122.477 141.051C122.558 141.105 122.612 141.159 122.693 141.213C122.828 141.294 122.99 141.348 123.152 141.429L128.494 143.155C128.845 143.263 129.25 143.317 129.655 143.317C130.438 143.317 131.192 143.128 131.652 142.75V193.289C131.192 193.667 130.436 193.856 129.655 193.856C129.25 193.856 128.845 193.802 128.494 193.694L123.152 191.968C122.99 191.914 122.855 191.86 122.72 191.779C122.72 191.779 122.693 191.779 122.693 191.752C122.612 191.698 122.531 191.644 122.477 191.59C122.423 191.563 122.369 191.536 122.342 191.482C122.342 191.482 122.342 191.482 122.315 191.455C122.288 191.428 122.261 191.401 122.234 191.374C122.18 191.32 122.126 191.266 122.099 191.212V191.185C122.018 191.05 121.991 190.942 121.991 190.807V140.268C121.991 140.403 122.045 140.538 122.099 140.646C122.126 140.727 122.18 140.808 122.234 140.862Z" fill="#999999" stroke="black" stroke-width="0.01" stroke-miterlimit="10"/>
<path d="M173.232 143.209C173.313 143.236 173.421 143.29 173.502 143.317C173.826 143.398 174.178 143.452 174.529 143.452C174.907 143.452 175.312 143.398 175.663 143.29L181.059 141.564C181.815 141.321 182.247 140.862 182.247 140.403V190.942C182.247 191.401 181.815 191.86 181.059 192.104L175.663 193.83C175.312 193.938 174.934 193.992 174.529 193.992C174.178 193.992 173.826 193.938 173.502 193.857C173.394 193.83 173.313 193.803 173.232 193.749C173.097 193.695 172.935 193.668 172.8 193.587C172.692 193.533 172.584 193.479 172.503 193.398L171.153 192.345V141.805L172.503 142.885C172.692 143.02 172.962 143.101 173.232 143.209Z" fill="#999999" stroke="black" stroke-width="0.01" stroke-miterlimit="10"/>
<path d="M135.374 141.051C135.698 141.051 136.022 141.078 136.292 141.132C138.801 141.645 141.392 142.05 144.036 142.32C144.333 142.347 144.603 142.401 144.873 142.482C144.954 142.509 145.035 142.536 145.116 142.563C145.251 142.617 145.413 142.671 145.548 142.725C145.575 142.725 145.575 142.752 145.602 142.752C145.683 142.779 145.71 142.833 145.791 142.887C145.899 142.941 146.007 143.022 146.061 143.076C146.088 143.103 146.115 143.13 146.115 143.157C146.142 143.184 146.169 143.211 146.196 143.238C146.223 143.292 146.277 143.319 146.304 143.373C146.358 143.481 146.412 143.589 146.412 143.67V194.21C146.385 194.048 146.304 193.913 146.196 193.777C146.169 193.75 146.142 193.724 146.115 193.697C146.034 193.589 145.899 193.508 145.764 193.427C145.71 193.373 145.656 193.345 145.575 193.291C145.44 193.21 145.278 193.157 145.089 193.076C145.008 193.049 144.954 192.995 144.846 192.995C144.576 192.914 144.306 192.859 144.009 192.832C141.365 192.562 138.801 192.157 136.265 191.644C135.968 191.59 135.644 191.563 135.347 191.563C134.429 191.563 133.486 191.806 132.973 192.211L131.596 193.291V142.779L132.973 141.699C133.54 141.294 134.485 141.051 135.374 141.051Z" fill="#666666" stroke="black" stroke-width="0.01" stroke-miterlimit="10"/>
<path d="M160.117 142.372C162.735 142.129 165.325 141.751 167.888 141.238C168.185 141.184 168.509 141.157 168.833 141.157C169.184 141.157 169.508 141.211 169.832 141.265C169.886 141.265 169.967 141.292 170.021 141.292C170.318 141.373 170.588 141.454 170.831 141.562C170.858 141.562 170.885 141.562 170.885 141.589C170.993 141.643 171.101 141.724 171.182 141.805V192.344C171.074 192.263 170.939 192.182 170.804 192.128C170.561 192.02 170.291 191.912 169.994 191.858C169.94 191.831 169.886 191.831 169.805 191.831C169.481 191.777 169.157 191.723 168.806 191.723C168.482 191.723 168.158 191.75 167.861 191.804C165.325 192.317 162.735 192.695 160.09 192.938C158.902 193.019 157.824 193.667 157.716 194.313L157.5 195.637V145.071L157.716 143.749C157.851 143.101 158.904 142.453 160.117 142.372Z" fill="#666666" stroke="black" stroke-width="0.01" stroke-miterlimit="10"/>
<path d="M146.788 145.448C146.815 145.475 146.815 145.502 146.842 145.502C146.977 145.637 147.139 145.745 147.328 145.853C147.463 145.934 147.652 145.988 147.814 146.042C147.895 146.069 147.976 146.123 148.084 146.123C148.354 146.177 148.651 146.231 148.975 146.231L155.128 146.258C156.343 146.258 157.421 145.718 157.529 145.043V195.582C157.421 196.258 156.368 196.797 155.128 196.797L148.975 196.77C148.651 196.77 148.354 196.744 148.084 196.663C147.976 196.636 147.922 196.608 147.814 196.581C147.652 196.527 147.463 196.473 147.328 196.392H147.301C147.139 196.311 147.004 196.203 146.896 196.095C146.869 196.068 146.869 196.068 146.842 196.041C146.815 196.014 146.815 195.988 146.788 195.988C146.734 195.934 146.707 195.906 146.68 195.852C146.626 195.771 146.599 195.663 146.572 195.555L146.41 194.259V143.72L146.572 145.016C146.599 145.178 146.68 145.313 146.788 145.448Z" fill="#999999" stroke="black" stroke-width="0.01" stroke-miterlimit="10"/>
<path d="M99.8377 115.281L99.8107 118.709C99.7837 119.384 100.756 119.951 101.969 120.03L104.316 120.138C105.504 120.192 106.609 120.786 106.798 121.434C107.257 122.89 107.932 124.348 108.849 125.723C109.254 126.371 108.822 127.18 107.822 127.558L105.88 128.314C104.881 128.719 104.557 129.475 105.151 130.067L108.201 133.035C108.633 133.44 109.47 133.683 110.305 133.683C110.656 133.683 110.98 133.656 111.304 133.575L113.435 133.008C113.759 132.927 114.137 132.873 114.515 132.873C115.379 132.873 116.241 133.089 116.781 133.44C118.534 134.601 120.398 135.679 122.421 136.597C123.339 137.029 123.717 137.866 123.204 138.486L122.178 139.674C121.665 140.268 122.07 141.051 123.123 141.4L128.465 143.126C128.816 143.234 129.221 143.288 129.626 143.288C130.409 143.288 131.164 143.099 131.623 142.721L133 141.641C133.513 141.236 134.456 140.993 135.374 140.993C135.698 140.993 136.022 141.02 136.292 141.074C138.801 141.587 141.391 141.992 144.036 142.262C145.224 142.37 146.275 142.991 146.383 143.664L146.545 144.96C146.653 145.635 147.706 146.202 148.946 146.202L155.099 146.229C156.314 146.229 157.392 145.689 157.5 145.014L157.716 143.693C157.824 143.045 158.877 142.424 160.09 142.316C162.707 142.073 165.298 141.695 167.861 141.182C168.158 141.128 168.482 141.101 168.806 141.101C169.724 141.101 170.667 141.344 171.153 141.749L172.503 142.829C172.962 143.207 173.745 143.396 174.526 143.396C174.905 143.396 175.31 143.342 175.661 143.234L181.057 141.508C182.11 141.184 182.54 140.428 182.029 139.809L181.057 138.594C180.544 138 180.895 137.164 181.867 136.732C183.971 135.787 185.861 134.736 187.588 133.629C188.128 133.251 188.992 133.062 189.827 133.062C190.205 133.062 190.583 133.116 190.934 133.197L193.092 133.764C193.416 133.845 193.767 133.899 194.118 133.899C194.955 133.899 195.763 133.656 196.168 133.251L199.299 130.283C199.893 129.689 199.596 128.906 198.597 128.53L196.654 127.774C195.682 127.369 195.252 126.559 195.682 125.939C196.6 124.537 197.328 123.106 197.814 121.65C198.03 121.002 199.137 120.408 200.323 120.354L202.697 120.273C203.912 120.192 204.882 119.625 204.909 118.95L204.936 115.523C204.963 114.848 203.964 114.253 202.778 114.172L200.431 114.064C199.216 114.01 198.111 113.443 197.922 112.768C197.49 111.339 196.788 109.881 195.898 108.479C195.466 107.858 195.925 107.05 196.924 106.645L198.867 105.889C199.866 105.484 200.19 104.728 199.596 104.136L196.546 101.167C196.087 100.735 195.277 100.492 194.442 100.492C194.118 100.492 193.767 100.519 193.47 100.6L191.312 101.167C190.988 101.248 190.61 101.302 190.232 101.302C189.368 101.302 188.479 101.086 187.939 100.735C186.212 99.5741 184.322 98.523 182.299 97.5779C181.381 97.1459 181.03 96.3358 181.543 95.7167L182.569 94.5287C183.082 93.9076 182.677 93.1265 181.624 92.8024L176.282 91.0493C175.931 90.9413 175.526 90.8872 175.121 90.8872C174.337 90.8872 173.583 91.0763 173.124 91.4543L171.747 92.5343C171.234 92.9393 170.291 93.1824 169.373 93.1824C169.049 93.1824 168.725 93.1554 168.455 93.1014C165.946 92.5884 163.328 92.1834 160.711 91.9404C159.523 91.8054 158.472 91.1843 158.364 90.5382L158.175 89.2421C158.067 88.567 157.041 88 155.801 88H149.648C148.433 88 147.355 88.54 147.22 89.215L147.031 90.5112C146.896 91.1862 145.843 91.7803 144.657 91.9133C142.04 92.1564 139.449 92.5344 136.886 93.0474C136.616 93.1014 136.292 93.1284 135.995 93.1284C135.05 93.1284 134.08 92.8854 133.567 92.4804L132.244 91.4003C131.785 91.0222 131.029 90.8332 130.247 90.8332C129.842 90.8332 129.437 90.8872 129.059 91.0223L123.69 92.7214C122.61 93.0455 122.18 93.8016 122.691 94.4477L123.69 95.6357C124.176 96.2297 123.825 97.0668 122.88 97.4969C120.776 98.4419 118.885 99.4931 117.159 100.627C116.619 100.978 115.757 101.167 114.893 101.167C114.515 101.167 114.137 101.113 113.786 101.032L111.628 100.465C111.331 100.384 110.98 100.33 110.656 100.33C109.819 100.33 108.984 100.573 108.579 100.978L105.448 103.919C104.854 104.514 105.151 105.297 106.15 105.673L108.065 106.429C109.065 106.834 109.495 107.644 109.065 108.263C108.119 109.665 107.419 111.096 106.933 112.552C106.717 113.2 105.61 113.794 104.397 113.848L102.023 113.929C100.837 114.041 99.8647 114.606 99.8377 115.281ZM135.077 100.307C140.554 98.5808 146.518 97.7438 152.427 97.7438C164.571 97.7438 176.334 101.252 182.756 107.511C192.309 116.794 186.454 128.638 169.697 133.953C164.22 135.679 158.256 136.489 152.4 136.489C140.257 136.489 128.467 132.981 122.018 126.72C112.44 117.44 118.293 105.596 135.077 100.307Z" fill="#E6E6E6" stroke="black" stroke-width="0.01" stroke-miterlimit="10"/>
<path d="M75.9855 170.569C76.0395 170.623 76.0665 170.677 76.0935 170.731C76.2015 170.92 76.2555 171.109 76.2555 171.298V233.414C76.2555 233.171 76.1745 232.928 75.9855 232.685L74.7704 231.227C74.7434 231.173 74.6894 231.119 74.6624 231.065C74.5543 230.903 74.5273 230.714 74.5273 230.552V168.436C74.5273 168.652 74.6084 168.895 74.7704 169.111L75.9855 170.569Z" fill="#666666" stroke="black" stroke-width="0.01" stroke-miterlimit="10"/>
<path d="M146.707 170.678L148.244 169.222C148.46 169.006 148.568 168.763 148.568 168.547V230.662C148.568 230.851 148.514 231.013 148.379 231.175C148.352 231.229 148.298 231.283 148.244 231.337L146.707 232.793C146.464 233.009 146.356 233.252 146.356 233.522V171.407C146.356 171.218 146.41 171.029 146.545 170.867C146.599 170.786 146.653 170.732 146.707 170.678Z" fill="#666666" stroke="black" stroke-width="0.01" stroke-miterlimit="10"/>
<path d="M165.919 184.169L168.32 183.251C169.13 182.927 169.589 182.414 169.589 181.901V236.055C168.187 234.247 166.486 232.654 164.49 231.387V185.785C164.463 185.168 165.003 184.52 165.919 184.169Z" fill="#999999" stroke="black" stroke-width="0.01" stroke-miterlimit="10"/>
<path d="M89.9628 176.371C104.426 171.785 121.129 172.028 135.403 177.37C144.362 180.717 154.048 187.218 154.183 197.743C154.345 210.21 154.237 222.648 154.21 235.115H68.0798C67.9447 222.461 67.8637 209.778 68.2688 197.151C68.6179 185.843 80.4639 179.366 89.9628 176.371Z" fill="#999999" stroke="black" stroke-width="0.01" stroke-miterlimit="10"/>
<path d="M96.7074 198.578C96.7884 198.848 96.9234 199.118 97.0584 199.388C97.1124 199.496 97.1934 199.631 97.2745 199.739C97.5715 200.198 97.9225 200.657 98.3545 201.114C98.5435 201.303 98.7865 201.465 99.0026 201.654C99.1646 201.789 99.3266 201.951 99.5156 202.086C99.7316 202.248 100.002 202.383 100.218 202.545C100.407 202.68 100.596 202.788 100.812 202.923C100.866 202.95 100.92 202.978 100.947 202.978C101.541 203.302 102.162 203.572 102.835 203.815C103.024 203.869 103.186 203.95 103.375 204.004C104.104 204.247 104.831 204.463 105.614 204.652C105.641 204.652 105.668 204.652 105.695 204.679C106.451 204.841 107.259 204.976 108.042 205.057C108.258 205.084 108.447 205.111 108.663 205.138C109.5 205.219 110.336 205.273 111.2 205.273C113.682 205.273 116.191 204.922 118.511 204.193C123.314 202.682 126.012 199.903 126.012 197.043V245.962H96.4104V197.07C96.4104 197.448 96.4644 197.853 96.5724 198.231C96.6264 198.335 96.6804 198.47 96.7074 198.578Z" fill="#666666" stroke="black" stroke-width="0.01" stroke-miterlimit="10"/>
<path d="M103.913 189.916C106.233 189.187 108.742 188.836 111.225 188.836C116.351 188.836 121.343 190.319 124.068 192.964C128.116 196.877 125.632 201.895 118.509 204.162C116.189 204.891 113.68 205.242 111.225 205.242C106.071 205.242 101.08 203.758 98.3545 201.114C94.3062 197.176 96.7884 192.157 103.913 189.916Z" fill="#F2F2F2" stroke="black" stroke-width="0.01" stroke-miterlimit="10"/>
<path d="M46.9239 199.658C47.0319 199.793 47.1669 199.901 47.3559 200.009C47.4099 200.036 47.4369 200.09 47.4909 200.117C47.6529 200.198 47.8419 200.279 48.0309 200.333C48.1389 200.36 48.2199 200.414 48.3009 200.441C48.598 200.522 48.949 200.576 49.3 200.603L52.1873 200.738C52.5383 200.765 52.8623 200.819 53.1863 200.9V181.607C53.1863 181.85 53.2943 182.093 53.4834 182.336C53.5104 182.363 53.5104 182.39 53.5374 182.417C53.7534 182.633 54.0234 182.849 54.4284 183.011L56.7756 183.929C56.9107 183.983 57.0187 184.037 57.1267 184.091C57.1807 184.118 57.2077 184.145 57.2347 184.172C57.3427 184.253 57.4507 184.307 57.5317 184.388C57.5857 184.415 57.6397 184.442 57.6667 184.496C57.6937 184.523 57.6937 184.55 57.7207 184.577C57.7747 184.631 57.8287 184.712 57.8827 184.766C57.9097 184.82 57.9637 184.847 57.9907 184.901C58.0177 184.928 57.9907 184.955 58.0177 184.982C58.1257 185.171 58.1797 185.36 58.1797 185.549V238.517H57.9097V236.71C57.9097 236.494 57.8557 236.278 57.7207 236.089C57.5047 235.765 57.2887 235.441 57.0997 235.09C56.8837 234.739 56.7216 234.361 56.5326 234.01C56.3976 233.767 56.2626 233.497 56.1546 233.254C55.7766 232.444 55.4526 231.636 55.2095 230.799C55.1555 230.61 55.0205 230.421 54.8585 230.259C54.8315 230.232 54.8315 230.232 54.8045 230.205C54.6155 230.016 54.3995 229.853 54.1295 229.718C53.9405 229.61 53.7244 229.557 53.5354 229.476C53.4274 229.449 53.3194 229.367 53.2114 229.34C52.8604 229.259 52.5094 229.178 52.1313 229.178L49.2441 229.043C48.8931 229.016 48.542 228.962 48.245 228.881C48.137 228.854 48.056 228.8 47.975 228.773C47.813 228.719 47.624 228.665 47.489 228.584C47.462 228.584 47.462 228.557 47.435 228.557C47.381 228.53 47.354 228.503 47.3 228.449C47.1919 228.368 47.0839 228.314 47.0029 228.233C46.9489 228.179 46.9219 228.125 46.8679 228.071C46.8409 228.044 46.8139 228.017 46.8139 227.99C46.7869 227.963 46.7599 227.936 46.7599 227.909C46.6789 227.747 46.6249 227.612 46.6249 227.45V199.037C46.6249 199.226 46.7059 199.415 46.8139 199.577C46.8698 199.604 46.8969 199.631 46.9239 199.658Z" fill="#666666" stroke="black" stroke-width="0.01" stroke-miterlimit="10"/>
<path d="M167.026 202.627C167.296 201.816 168.644 201.116 170.129 201.035L173.043 200.927C174.553 200.846 175.741 200.117 175.768 199.309L175.796 195.126V195.099V223.539V223.566L175.768 227.75C175.741 228.587 174.553 229.287 173.043 229.368L170.129 229.476C168.646 229.557 167.296 230.286 167.026 231.067C166.432 232.874 165.57 234.629 164.435 236.356C164.3 236.545 164.246 236.761 164.246 237.004V208.536C164.246 208.32 164.3 208.104 164.435 207.888C165.541 206.187 166.432 204.434 167.026 202.627Z" fill="#666666" stroke="black" stroke-width="0.01" stroke-miterlimit="10"/>
<path d="M53.2384 212.987L56.9897 216.63V245.071L53.2384 241.428C53.1574 241.347 53.0764 241.239 53.0224 241.131C53.0224 241.104 53.0224 241.104 53.0224 241.077C52.9414 240.915 52.8874 240.78 52.8874 240.618V212.177C52.8874 212.339 52.9414 212.501 53.0224 212.636C53.0764 212.771 53.1304 212.879 53.2384 212.987Z" fill="#999999" stroke="black" stroke-width="0.01" stroke-miterlimit="10"/>
<path d="M162.464 217.681C163.491 217.681 164.488 217.384 165.001 216.898L168.86 213.228C169.103 212.985 169.238 212.715 169.238 212.418V240.859C169.238 241.129 169.103 241.426 168.86 241.669L165.001 245.339C164.488 245.852 163.491 246.123 162.464 246.123C162.032 246.123 161.6 246.069 161.195 245.961L158.551 245.285V216.844L161.195 217.519C161.602 217.628 162.034 217.681 162.464 217.681Z" fill="#999999" stroke="black" stroke-width="0.01" stroke-miterlimit="10"/>
<path d="M58.2298 217.25C58.6348 217.358 59.0939 217.439 59.5529 217.439C59.9579 217.439 60.3899 217.385 60.768 217.304L63.4122 216.629C63.8172 216.521 64.2763 216.467 64.7353 216.467C65.2483 216.467 65.7344 216.521 66.1915 216.629C66.3265 216.656 66.4615 216.737 66.5965 216.764C66.8395 216.845 67.1095 216.899 67.3255 217.007C67.4066 217.034 67.4606 217.088 67.5416 217.142C68.7296 217.925 69.9968 218.679 71.2929 219.408C72.3189 219.975 73.3701 220.515 74.4772 221.026C74.5312 221.053 74.5852 221.08 74.6122 221.107C74.8282 221.215 75.0172 221.377 75.1792 221.512C75.2332 221.566 75.2602 221.62 75.3142 221.674C75.3412 221.701 75.3682 221.755 75.3952 221.782C75.4222 221.836 75.4762 221.863 75.5032 221.917C75.6382 222.133 75.6922 222.349 75.6922 222.565V251.006C75.6922 250.736 75.5842 250.466 75.3952 250.196C75.3682 250.169 75.3412 250.115 75.3142 250.088C75.0982 249.845 74.8282 249.602 74.4502 249.44C73.4781 248.981 72.535 248.522 71.5899 248.008C71.4819 247.954 71.3739 247.873 71.2659 247.819C69.9698 247.117 68.7296 246.363 67.5146 245.553C67.2715 245.391 66.9205 245.283 66.5965 245.175C66.4615 245.121 66.3535 245.067 66.1915 245.04C65.7324 244.932 65.2194 244.878 64.7353 244.878C64.2763 244.878 63.8172 244.932 63.4122 245.04L60.768 245.715C60.3899 245.823 59.9579 245.85 59.5529 245.85C59.0939 245.85 58.6348 245.769 58.2298 245.661C58.0948 245.634 58.0138 245.58 57.9058 245.553C57.7438 245.499 57.5818 245.472 57.4468 245.391C57.2848 245.31 57.1227 245.202 56.9877 245.067V216.627C57.2037 216.843 57.5548 216.978 57.9058 217.113C58.0138 217.169 58.1218 217.225 58.2298 217.25Z" fill="#666666" stroke="black" stroke-width="0.01" stroke-miterlimit="10"/>
<path d="M147.436 221.217C149.999 220.056 152.346 218.762 154.451 217.385C155.099 216.926 156.177 216.683 157.203 216.683C157.662 216.683 158.148 216.737 158.553 216.845V245.285C158.148 245.177 157.689 245.123 157.203 245.123C156.177 245.123 155.099 245.366 154.451 245.825C152.346 247.2 149.999 248.469 147.436 249.658C146.626 250.036 146.167 250.63 146.167 251.195V222.754C146.167 222.162 146.626 221.595 147.436 221.217Z" fill="#666666" stroke="black" stroke-width="0.01" stroke-miterlimit="10"/>
<path d="M74.1764 226.208C74.2034 226.235 74.2304 226.289 74.2574 226.316C74.3114 226.37 74.3924 226.424 74.4464 226.451C74.5274 226.532 74.6084 226.586 74.7164 226.64C74.8784 226.721 75.0674 226.829 75.2835 226.883L81.841 228.988C82.2731 229.123 82.7861 229.204 83.2702 229.204C84.2153 229.204 85.1584 228.961 85.7254 228.529V256.969C85.1584 257.428 84.2153 257.644 83.2702 257.644C82.7842 257.644 82.2711 257.59 81.841 257.428L75.2835 255.324C75.0944 255.27 74.9054 255.189 74.7434 255.108C74.7164 255.108 74.7164 255.081 74.7164 255.081C74.6084 255.027 74.5274 254.946 74.4464 254.892C74.3924 254.838 74.3114 254.811 74.2574 254.757C74.2574 254.757 74.2574 254.73 74.2304 254.73C74.2034 254.703 74.1764 254.649 74.1494 254.622C74.0954 254.568 74.0414 254.487 73.9874 254.433C73.9874 254.406 73.9874 254.406 73.9874 254.379C73.9064 254.217 73.8524 254.055 73.8524 253.893V225.479C73.8524 225.641 73.9064 225.803 73.9874 225.965C74.0684 226.046 74.1224 226.127 74.1764 226.208Z" fill="#999999" stroke="black" stroke-width="0.01" stroke-miterlimit="10"/>
<path d="M136.859 229.069C136.967 229.096 137.075 229.15 137.21 229.204C137.615 229.312 138.047 229.366 138.479 229.366C138.965 229.366 139.424 229.312 139.856 229.177L146.468 227.072C147.386 226.775 147.924 226.235 147.924 225.641V254.082C147.924 254.649 147.384 255.216 146.468 255.513L139.856 257.617C139.424 257.752 138.938 257.806 138.479 257.806C138.047 257.806 137.615 257.752 137.21 257.644C137.075 257.617 136.994 257.563 136.859 257.509C136.67 257.455 136.481 257.401 136.346 257.32C136.211 257.239 136.103 257.158 135.995 257.077L134.35 255.756V227.342L135.995 228.665C136.211 228.826 136.535 228.961 136.859 229.069Z" fill="#999999" stroke="black" stroke-width="0.01" stroke-miterlimit="10"/>
<path d="M90.3658 226.424C90.7438 226.424 91.1488 226.451 91.4999 226.532C94.6031 227.153 97.7604 227.639 100.999 227.99C101.35 228.017 101.701 228.098 102.025 228.206C102.133 228.233 102.214 228.287 102.295 228.314C102.484 228.369 102.673 228.45 102.835 228.531C102.862 228.531 102.862 228.557 102.889 228.584C102.97 228.638 103.024 228.692 103.105 228.746C103.213 228.827 103.348 228.909 103.456 228.99C103.483 229.017 103.51 229.071 103.537 229.098C103.564 229.125 103.591 229.179 103.618 229.206C103.645 229.26 103.699 229.314 103.753 229.368C103.834 229.503 103.861 229.611 103.888 229.746V258.186C103.861 257.997 103.753 257.835 103.618 257.646C103.591 257.619 103.564 257.565 103.537 257.538C103.429 257.43 103.267 257.295 103.105 257.187C103.024 257.133 102.97 257.079 102.889 257.025C102.727 256.917 102.511 256.836 102.295 256.755C102.187 256.728 102.106 256.674 102.025 256.647C101.701 256.539 101.35 256.485 100.999 256.431C97.7604 256.08 94.6031 255.594 91.4999 254.975C91.1488 254.894 90.7438 254.867 90.3658 254.867C89.2587 254.867 88.0996 255.164 87.4515 255.65L85.7794 256.971V228.556L87.4515 227.234C88.0996 226.721 89.2336 226.424 90.3658 226.424Z" fill="#666666" stroke="black" stroke-width="0.01" stroke-miterlimit="10"/>
<path d="M120.751 228.045C123.962 227.721 127.146 227.262 130.276 226.643C130.654 226.562 131.032 226.535 131.437 226.535C131.842 226.535 132.247 226.589 132.652 226.67C132.733 226.697 132.787 226.697 132.869 226.724C133.247 226.805 133.571 226.913 133.868 227.075C133.895 227.075 133.922 227.102 133.949 227.102C134.084 227.183 134.219 227.264 134.327 227.345V255.785C134.192 255.677 134.03 255.596 133.868 255.515C133.571 255.38 133.247 255.245 132.869 255.164C132.787 255.137 132.733 255.137 132.652 255.11C132.247 255.029 131.842 254.975 131.437 254.975C131.032 254.975 130.654 255.002 130.276 255.083C127.146 255.704 123.962 256.163 120.751 256.485C119.267 256.593 117.971 257.376 117.836 258.158L117.566 259.776V231.362L117.836 229.744C117.944 228.934 119.265 228.18 120.751 228.045Z" fill="#666666" stroke="black" stroke-width="0.01" stroke-miterlimit="10"/>
<path d="M104.37 231.848C104.397 231.875 104.397 231.902 104.424 231.929C104.586 232.091 104.775 232.253 105.018 232.361C105.207 232.442 105.396 232.523 105.612 232.577C105.72 232.604 105.801 232.658 105.936 232.685C106.287 232.766 106.638 232.82 107.016 232.82L114.598 232.847C116.108 232.847 117.431 232.199 117.539 231.364V259.804C117.404 260.641 116.11 261.287 114.598 261.287L107.043 261.26C106.665 261.26 106.287 261.206 105.963 261.125C105.855 261.098 105.747 261.044 105.639 261.017C105.423 260.963 105.207 260.882 105.045 260.801H105.018C104.829 260.693 104.64 260.585 104.505 260.45C104.478 260.423 104.478 260.396 104.451 260.396C104.424 260.369 104.397 260.342 104.397 260.315C104.343 260.261 104.289 260.207 104.262 260.126C104.208 260.018 104.154 259.883 104.127 259.775L103.911 258.184V229.717L104.127 231.308C104.129 231.497 104.235 231.686 104.37 231.848Z" fill="#999999" stroke="black" stroke-width="0.01" stroke-miterlimit="10"/>
<path d="M46.6809 194.775L46.6539 199.01C46.6269 199.847 47.8149 200.547 49.3251 200.628L52.2124 200.763C53.6685 200.817 55.0456 201.573 55.2886 202.354C55.8287 204.162 56.6657 205.917 57.7979 207.643C58.2839 208.453 57.7709 209.45 56.5288 209.909L54.1276 210.827C52.9125 211.313 52.5094 212.258 53.2365 212.985L56.9878 216.629C57.5009 217.142 58.552 217.439 59.5781 217.439C59.9831 217.439 60.4151 217.385 60.7931 217.304L63.4374 216.629C63.8424 216.521 64.3014 216.467 64.7605 216.467C65.8135 216.467 66.8917 216.737 67.5397 217.169C69.671 218.6 71.9912 219.921 74.4753 221.055C75.6094 221.595 76.0665 222.619 75.4204 223.375L74.1513 224.831C73.5033 225.561 74.0163 226.504 75.3124 226.936L81.87 229.04C82.302 229.175 82.815 229.256 83.2991 229.256C84.2442 229.256 85.1873 229.013 85.7544 228.581L87.4265 227.258C88.0746 226.745 89.2067 226.475 90.3408 226.475C90.7188 226.475 91.1238 226.502 91.4749 226.583C94.5781 227.204 97.7354 227.69 100.974 228.039C102.457 228.174 103.726 228.93 103.861 229.738L104.077 231.329C104.212 232.166 105.506 232.839 107.018 232.839L114.6 232.866C116.11 232.866 117.433 232.218 117.541 231.383L117.811 229.765C117.946 228.955 119.24 228.201 120.726 228.093C123.937 227.769 127.121 227.31 130.251 226.691C130.629 226.61 131.007 226.583 131.412 226.583C132.546 226.583 133.679 226.88 134.3 227.366L135.945 228.689C136.512 229.148 137.482 229.391 138.427 229.391C138.913 229.391 139.372 229.337 139.804 229.202L146.416 227.098C147.712 226.693 148.25 225.748 147.604 225.021L146.416 223.537C145.768 222.808 146.227 221.811 147.388 221.244C149.951 220.083 152.298 218.789 154.402 217.412C155.051 216.953 156.129 216.71 157.155 216.71C157.614 216.71 158.1 216.764 158.505 216.872L161.149 217.547C161.554 217.655 161.986 217.709 162.418 217.709C163.444 217.709 164.441 217.412 164.954 216.926L168.814 213.255C169.543 212.553 169.192 211.583 167.95 211.124L165.548 210.179C164.36 209.693 163.822 208.696 164.36 207.913C165.494 206.214 166.384 204.432 166.951 202.624C167.221 201.814 168.569 201.114 170.054 201.033L172.968 200.925C174.478 200.844 175.666 200.115 175.693 199.307L175.72 195.124C175.747 194.287 174.532 193.56 173.049 193.479L170.162 193.344C168.652 193.29 167.302 192.56 167.059 191.752C166.546 189.972 165.682 188.217 164.576 186.464C164.063 185.681 164.603 184.684 165.845 184.198L168.247 183.28C169.462 182.794 169.865 181.848 169.138 181.148L165.386 177.505C164.846 176.965 163.822 176.668 162.796 176.668C162.391 176.668 161.986 176.722 161.581 176.803L158.937 177.478C158.532 177.586 158.073 177.64 157.614 177.64C156.561 177.64 155.456 177.37 154.808 176.938C152.703 175.509 150.356 174.24 147.872 173.052C146.738 172.512 146.308 171.514 146.954 170.758L148.223 169.302C148.871 168.519 148.358 167.603 147.062 167.198L140.504 165.067C140.072 164.932 139.559 164.851 139.075 164.851C138.13 164.851 137.187 165.094 136.62 165.553L134.921 166.876C134.3 167.389 133.141 167.659 132.006 167.659C131.601 167.659 131.223 167.632 130.872 167.551C127.769 166.93 124.585 166.444 121.374 166.12C119.917 165.958 118.621 165.202 118.486 164.394L118.243 162.803C118.108 161.966 116.841 161.292 115.329 161.292H107.747C106.237 161.292 104.941 161.941 104.779 162.776L104.536 164.367C104.374 165.204 103.053 165.931 101.622 166.066C98.4105 166.363 95.2262 166.849 92.0959 167.468C91.7449 167.522 91.3939 167.549 91.0158 167.549C89.8548 167.549 88.6686 167.252 88.0206 166.739L86.4024 165.418C85.8354 164.959 84.9192 164.716 83.9742 164.716C83.4881 164.716 82.9751 164.797 82.518 164.932L75.9334 167.009C74.6103 167.414 74.0992 168.359 74.7183 169.113L75.9334 170.569C76.5545 171.298 76.0954 172.296 74.9614 172.863C72.3981 174.024 70.0509 175.318 67.9467 176.722C67.2716 177.154 66.2205 177.397 65.1674 177.397C64.6814 177.397 64.2224 177.343 63.7904 177.235L61.1461 176.56C60.7681 176.452 60.3631 176.398 59.931 176.398C58.905 176.398 57.8808 176.695 57.3678 177.208L53.5085 180.824C52.7794 181.526 53.1304 182.497 54.3725 182.983L56.7197 183.901C57.9348 184.387 58.4729 185.384 57.9348 186.167C56.7737 187.866 55.9116 189.648 55.3176 191.455C55.0476 192.265 53.6994 192.992 52.1873 193.046L49.273 193.155C47.9229 193.236 46.7079 193.965 46.6809 194.775ZM89.9628 176.371C96.7094 174.24 104.048 173.214 111.279 173.214C126.201 173.214 140.662 177.53 148.543 185.222C160.281 196.636 153.076 211.18 132.489 217.736C125.769 219.867 118.457 220.866 111.227 220.866C96.3043 220.866 81.7889 216.55 73.8813 208.858C62.1702 197.446 69.3739 182.875 89.9628 176.371Z" fill="#E6E6E6" stroke="black" stroke-width="0.01" stroke-miterlimit="10"/>
<defs>
<linearGradient id="paint0_linear" x1="185.621" y1="159.861" x2="326.827" y2="159.861" gradientUnits="userSpaceOnUse">
<stop offset="0.00239777" stop-color="#05726D"/>
<stop offset="1" stop-color="#2BBDB8"/>
</linearGradient>
<linearGradient id="paint1_linear" x1="244.967" y1="123.482" x2="274.694" y2="123.482" gradientUnits="userSpaceOnUse">
<stop offset="0.2224" stop-color="#F79600"/>
<stop offset="1" stop-color="#FCB50C"/>
</linearGradient>
<linearGradient id="paint2_linear" x1="244.967" y1="76.395" x2="274.694" y2="76.395" gradientUnits="userSpaceOnUse">
<stop offset="0.2224" stop-color="#FFD275"/>
<stop offset="1" stop-color="#FBA600"/>
</linearGradient>
<linearGradient id="paint3_linear" x1="267.271" y1="153.546" x2="296.998" y2="153.546" gradientUnits="userSpaceOnUse">
<stop offset="0.2224" stop-color="#EABE06"/>
<stop offset="1" stop-color="#FFE56F"/>
</linearGradient>
<linearGradient id="paint4_linear" x1="213.556" y1="97.2423" x2="231.931" y2="97.6447" gradientUnits="userSpaceOnUse">
<stop offset="0.2224" stop-color="#389B2D"/>
<stop offset="1" stop-color="#6BC03C"/>
</linearGradient>
<linearGradient id="paint5_linear" x1="244.761" y1="41.9212" x2="201.152" y2="42.314" gradientUnits="userSpaceOnUse">
<stop offset="0.2224" stop-color="#45A93B"/>
<stop offset="1" stop-color="#6BC03C"/>
</linearGradient>
<linearGradient id="paint6_linear" x1="275.121" y1="175.655" x2="172.582" y2="240.479" gradientUnits="userSpaceOnUse">
<stop offset="0.2224" stop-color="#EABE06"/>
<stop offset="1" stop-color="#FFE56F" stop-opacity="0"/>
</linearGradient>
<linearGradient id="paint7_linear" x1="253.25" y1="165.132" x2="142.067" y2="231.134" gradientUnits="userSpaceOnUse">
<stop offset="0.2224" stop-color="#F79600"/>
<stop offset="1" stop-color="#FCB50C" stop-opacity="0"/>
</linearGradient>
<linearGradient id="paint8_linear" x1="97.0638" y1="182.929" x2="230.93" y2="182.929" gradientUnits="userSpaceOnUse">
<stop offset="0.2224" stop-color="#389B2D"/>
<stop offset="1" stop-color="#6BC03C"/>
</linearGradient>
</defs>
</svg>
