<?xml version="1.0" standalone="no"?>
<!DOCTYPE svg PUBLIC "-//W3C//DTD SVG 20010904//EN"
 "http://www.w3.org/TR/2001/REC-SVG-20010904/DTD/svg10.dtd">
<svg version="1.0" xmlns="http://www.w3.org/2000/svg"
 width="512.000000pt" height="512.000000pt" viewBox="0 0 512.000000 512.000000"
 preserveAspectRatio="xMidYMid meet">

<g transform="translate(0.000000,512.000000) scale(0.100000,-0.100000)"
fill="#000000" stroke="none">
<path d="M1541 4966 c-52 -29 -50 -7 -51 -814 l0 -754 29 -29 c16 -16 38 -29
48 -29 27 0 1954 -1 1981 0 13 0 37 13 53 29 l29 29 0 751 c0 560 -3 757 -12
776 -26 57 19 55 -1060 55 -805 -1 -998 -3 -1017 -14z m1867 -758 l-3 -533
-837 -3 -838 -2 0 535 0 535 840 0 840 0 -2 -532z m-788 -648 c42 -42 8 -120
-52 -120 -58 0 -91 78 -51 122 22 24 77 24 103 -2z"/>
<path d="M2140 3145 l0 -85 -100 0 -100 0 0 -40 0 -40 290 0 290 0 0 -190 0
-190 -470 0 -470 0 0 54 c0 89 15 86 -407 86 -350 0 -364 -1 -383 -20 -15 -15
-20 -33 -20 -70 l0 -50 -160 0 -160 0 0 -40 0 -40 160 0 160 0 0 -48 c0 -84 4
-86 191 -92 l163 -5 -1 -27 c-1 -16 -1 -68 -2 -118 l-1 -90 -475 0 -475 0 -32
-29 -33 -29 -3 -744 c-2 -544 1 -750 9 -771 7 -15 23 -37 37 -47 24 -20 46
-20 1029 -20 l1005 0 34 34 34 34 -2 757 -3 757 -33 29 -32 29 -475 0 -475 0
0 120 0 120 153 0 c187 0 197 4 197 86 l0 54 980 0 980 0 0 -54 c0 -82 10 -86
197 -86 l153 0 0 -120 0 -120 -476 0 -476 0 -34 -34 -34 -34 2 -757 3 -757 33
-29 32 -29 1005 0 1005 0 32 29 33 29 3 744 c2 544 -1 750 -9 771 -7 15 -23
37 -37 47 -24 19 -43 20 -498 20 l-474 0 -1 90 c-1 50 -1 102 -2 118 l-1 27
163 5 c187 6 191 8 191 92 l0 48 160 0 160 0 0 40 0 40 -160 0 -160 0 0 50 c0
37 -5 55 -20 70 -19 19 -33 20 -384 20 -422 0 -407 3 -408 -88 l0 -52 -469 0
-469 0 0 190 0 190 301 0 300 0 -3 38 -3 37 -107 3 -108 3 0 84 0 85 -420 0
-420 0 0 -85z m-130 -1770 l0 -535 -835 0 -835 0 0 535 0 535 835 0 835 0 0
-535z m2770 0 l0 -535 -835 0 -835 0 0 535 0 535 835 0 835 0 0 -535z m-3555
-660 c39 -39 32 -86 -17 -111 -63 -33 -126 31 -94 94 24 47 74 55 111 17z
m2783 -2 c19 -26 15 -77 -8 -98 -29 -26 -79 -24 -102 4 -25 32 -23 67 8 98 20
20 31 24 57 19 18 -3 38 -14 45 -23z"/>
<path d="M757 393 c-4 -3 -7 -44 -7 -90 l0 -83 -95 0 -95 0 0 -40 0 -40 625 0
625 0 0 40 0 40 -105 0 -105 0 0 90 0 90 -418 0 c-230 0 -422 -3 -425 -7z"/>
<path d="M3527 393 c-4 -3 -7 -44 -7 -90 l0 -83 -95 0 -95 0 0 -40 0 -40 625
0 625 0 0 40 0 40 -105 0 -104 0 -3 88 -3 87 -416 3 c-228 1 -418 -1 -422 -5z"/>
</g>
</svg>
