<?xml version="1.0" standalone="no"?>
<!DOCTYPE svg PUBLIC "-//W3C//DTD SVG 20010904//EN"
 "http://www.w3.org/TR/2001/REC-SVG-20010904/DTD/svg10.dtd">
<svg version="1.0" xmlns="http://www.w3.org/2000/svg"
 width="512.000000pt" height="512.000000pt" viewBox="0 0 512.000000 512.000000"
 preserveAspectRatio="xMidYMid meet">

<g transform="translate(0.000000,512.000000) scale(0.100000,-0.100000)"
fill="#000000" stroke="none">
<path d="M3120 5027 c-49 -16 -133 -102 -148 -153 -7 -23 -12 -84 -12 -137 l0
-95 -47 -7 c-103 -15 -196 -84 -243 -180 -20 -41 -24 -66 -24 -135 0 -73 4
-92 26 -136 15 -28 38 -65 52 -81 33 -39 129 -90 189 -98 l47 -7 0 -199 0
-199 319 0 319 0 4 109 c3 118 12 141 72 185 39 29 133 29 172 0 60 -44 69
-67 72 -185 l4 -109 215 0 c140 0 230 4 257 12 55 16 138 99 154 154 17 58 17
1049 0 1106 -6 22 -31 62 -55 88 -74 83 -50 80 -737 79 -408 -1 -612 -5 -636
-12z m1255 -172 l25 -24 0 -511 0 -511 -25 -24 c-23 -24 -29 -25 -158 -25
l-135 0 -7 48 c-8 59 -59 155 -98 188 -16 14 -53 37 -81 52 -44 22 -63 26
-136 26 -69 0 -94 -4 -135 -24 -96 -47 -165 -140 -180 -243 l-7 -47 -159 0
-159 0 0 199 0 199 -109 4 c-92 2 -114 6 -137 24 -53 39 -69 71 -69 134 0 63
16 95 69 134 23 18 45 22 137 24 l109 4 0 174 c0 172 0 175 25 199 l24 25 591
0 591 0 24 -25z"/>
<path d="M1921 4549 c-366 -43 -739 -240 -977 -517 -181 -210 -296 -444 -355
-722 -30 -139 -33 -427 -6 -565 43 -222 143 -458 263 -626 93 -129 198 -233
402 -399 l191 -155 0 -111 1 -112 -30 -12 c-68 -28 -130 -129 -130 -210 0 -85
61 -179 138 -214 37 -17 40 -21 31 -43 -34 -91 24 -224 121 -273 31 -16 38
-25 43 -57 18 -130 118 -279 241 -360 213 -141 509 -114 690 61 83 81 166 237
166 313 0 16 11 28 39 42 98 50 156 183 122 274 -9 22 -6 26 31 43 77 35 138
129 138 214 0 81 -62 182 -130 210 l-30 12 1 112 0 111 157 125 c188 150 356
315 436 428 173 245 271 539 283 855 l6 147 -240 0 -241 0 -7 48 c-8 59 -59
155 -98 188 -16 14 -53 37 -81 52 -44 22 -63 26 -136 26 -69 0 -94 -4 -135
-24 -96 -47 -165 -140 -180 -243 l-7 -47 -159 0 -159 0 0 199 0 199 -109 4
c-118 3 -141 12 -185 72 -29 39 -29 133 0 172 44 60 67 69 185 72 l109 4 0
359 0 359 -162 -1 c-90 -1 -196 -5 -237 -10z m239 -348 l0 -199 -47 -7 c-103
-15 -196 -84 -243 -180 -20 -41 -24 -66 -24 -135 0 -73 4 -92 26 -136 15 -28
38 -65 52 -81 33 -39 129 -90 189 -98 l47 -7 0 -119 0 -119 -159 0 -159 0 -7
48 c-8 59 -59 155 -98 188 -16 14 -53 37 -81 52 -44 22 -63 26 -136 26 -69 0
-94 -4 -135 -24 -96 -47 -165 -140 -180 -243 l-7 -47 -237 0 -237 0 8 73 c17
137 70 311 136 442 126 253 366 492 617 618 183 91 393 143 593 146 l82 1 0
-199z m-552 -948 c58 -43 67 -66 70 -184 l4 -109 239 0 239 0 0 -159 0 -159
-47 -7 c-103 -15 -196 -84 -243 -180 -19 -41 -24 -66 -24 -135 -1 -78 2 -90
33 -148 19 -35 48 -74 64 -88 45 -38 117 -71 170 -79 l47 -7 0 -319 0 -319
-280 0 -280 0 0 140 0 139 -208 170 c-114 93 -247 210 -294 260 -213 223 -342
508 -373 824 l-7 67 321 0 321 0 0 94 c0 129 22 179 95 212 40 19 119 12 153
-13z m1440 0 c58 -43 67 -66 70 -184 l4 -109 240 0 240 0 -7 -67 c-31 -314
-162 -602 -373 -825 -48 -50 -180 -167 -294 -260 l-208 -170 0 -139 0 -139
-200 0 -200 0 0 399 0 399 -109 4 c-118 3 -141 12 -185 72 -29 39 -29 133 0
172 44 60 67 69 185 72 l109 4 0 239 0 239 240 0 240 0 0 94 c0 129 22 179 95
212 40 19 119 12 153 -13z m-193 -2078 c33 -32 33 -78 0 -110 l-24 -25 -671 0
-671 0 -24 25 c-16 15 -25 36 -25 55 0 19 9 40 25 55 l24 25 671 0 671 0 24
-25z m-160 -320 c16 -15 25 -36 25 -55 0 -19 -9 -40 -25 -55 l-24 -25 -511 0
-511 0 -24 25 c-16 15 -25 36 -25 55 0 19 9 40 25 55 l24 25 511 0 511 0 24
-25z m-145 -309 c0 -7 -16 -45 -35 -83 -43 -86 -103 -144 -193 -186 -61 -29
-76 -32 -162 -32 -86 0 -101 3 -160 31 -93 44 -152 101 -195 186 -19 39 -35
77 -35 84 0 12 67 14 390 14 323 0 390 -2 390 -14z"/>
</g>
</svg>
