<?xml version="1.0" standalone="no"?>
<!DOCTYPE svg PUBLIC "-//W3C//DTD SVG 20010904//EN"
 "http://www.w3.org/TR/2001/REC-SVG-20010904/DTD/svg10.dtd">
<svg version="1.0" xmlns="http://www.w3.org/2000/svg"
 width="1200.000000pt" height="1200.000000pt" viewBox="0 0 1200.000000 1200.000000"
 preserveAspectRatio="xMidYMid meet">

<g transform="translate(0.000000,1200.000000) scale(0.100000,-0.100000)"
fill="#000000" stroke="none">
<path d="M7742 10583 l3 -418 603 -5 602 -5 -1715 -1715 -1715 -1715 -888 888
-887 887 -700 -700 -700 -700 -187 187 c-104 103 -188 192 -188 197 0 28 85
233 157 376 324 651 857 1146 1538 1430 217 90 490 161 750 196 161 21 540 25
700 6 651 -76 1271 -369 1738 -821 l57 -56 288 288 287 288 -75 70 c-636 594
-1340 926 -2195 1035 -174 22 -640 26 -815 6 -417 -47 -780 -145 -1150 -308
-848 -376 -1547 -1075 -1924 -1924 -557 -1258 -389 -2713 441 -3812 172 -228
427 -492 640 -663 587 -470 1255 -744 2013 -827 149 -16 582 -16 730 1 496 54
939 185 1357 401 l155 79 1057 -1049 c581 -578 1079 -1067 1106 -1086 234
-169 563 -206 835 -94 110 45 207 114 321 229 170 169 250 314 285 513 28 158
5 346 -61 494 -62 141 -84 164 -1164 1239 l-1044 1041 57 97 c84 143 217 423
275 577 269 726 312 1507 125 2255 -31 122 -103 346 -115 360 -6 6 -128 -109
-330 -310 -316 -316 -320 -320 -315 -355 3 -19 14 -89 25 -154 77 -449 37
-948 -110 -1395 -191 -578 -551 -1081 -1037 -1449 -835 -630 -1939 -773 -2913
-377 -961 391 -1661 1284 -1814 2312 -16 110 -35 326 -28 333 2 2 122 -114
266 -258 l262 -262 700 700 700 700 887 -887 888 -888 2013 2013 c1106 1106
2015 2012 2019 2012 5 0 9 -285 10 -632 l3 -633 415 0 415 0 3 1353 2 1352
-1330 0 -1330 0 2 -417z"/>
</g>
</svg>
