<?xml version="1.0" standalone="no"?>
<!DOCTYPE svg PUBLIC "-//W3C//DTD SVG 20010904//EN"
 "http://www.w3.org/TR/2001/REC-SVG-20010904/DTD/svg10.dtd">
<svg version="1.0" xmlns="http://www.w3.org/2000/svg"
 width="256.000000pt" height="256.000000pt" viewBox="0 0 256.000000 256.000000"
 preserveAspectRatio="xMidYMid meet">

<g transform="translate(0.000000,256.000000) scale(0.100000,-0.100000)"
fill="#000000" stroke="none">
<path d="M1122 2540 c-113 -30 -206 -84 -293 -170 -360 -359 -175 -971 324
-1074 42 -9 79 -16 82 -16 3 0 5 -44 5 -99 l0 -99 -41 -41 -41 -41 -407 0
c-303 0 -410 -3 -419 -12 -8 -8 -12 -54 -12 -139 l0 -127 -125 -4 -125 -3 -32
-33 -33 -32 0 -210 0 -210 33 -32 c30 -31 37 -33 112 -37 69 -3 80 -5 76 -20
-24 -78 -28 -112 -16 -126 18 -22 282 -22 300 0 12 14 8 48 -16 126 -4 15 7
17 76 20 75 4 82 6 112 37 l33 32 0 210 0 210 -33 32 -32 33 -125 3 -125 4 0
99 0 99 379 0 379 0 41 -41 c39 -39 41 -45 41 -99 l0 -58 -125 -4 -125 -3 -32
-33 -33 -32 0 -210 0 -210 33 -32 c30 -31 37 -33 112 -37 69 -3 80 -5 76 -20
-24 -78 -28 -112 -16 -126 18 -22 282 -22 300 0 12 14 8 48 -16 126 -4 15 7
17 76 20 75 4 82 6 112 37 l33 32 0 210 0 210 -33 32 -32 33 -125 3 -125 4 0
58 c0 54 2 60 41 99 l41 41 379 0 379 0 0 -99 0 -99 -125 -4 -125 -3 -32 -33
-33 -32 0 -210 0 -210 33 -32 c30 -31 37 -33 112 -37 69 -3 80 -5 76 -20 -24
-78 -28 -112 -16 -126 18 -22 282 -22 300 0 12 14 8 48 -16 126 -4 15 7 17 76
20 75 4 82 6 112 37 l33 32 0 210 0 210 -33 32 -32 33 -125 3 -125 4 0 127 c0
85 -4 131 -12 139 -9 9 -116 12 -419 12 l-407 0 -41 41 -41 41 0 99 c0 55 2
99 5 99 3 0 40 7 82 16 499 103 684 716 324 1074 -164 163 -393 226 -609 170z
m118 -185 l0 -115 -95 0 -94 0 19 45 c29 68 76 132 118 160 20 14 40 25 44 25
5 0 8 -52 8 -115z m132 90 c42 -28 89 -92 118 -160 l19 -45 -94 0 -95 0 0 115
c0 63 3 115 8 115 4 0 24 -11 44 -25z m-342 -64 c-17 -27 -38 -70 -46 -95
l-16 -46 -69 0 c-38 0 -69 4 -69 9 0 29 186 180 222 181 4 0 -6 -22 -22 -49z
m535 20 c50 -29 165 -135 165 -152 0 -5 -31 -9 -69 -9 l-68 0 -18 48 c-10 26
-30 68 -46 95 -16 26 -25 47 -21 47 4 0 30 -13 57 -29z m-625 -252 c0 -7 -5
-52 -12 -100 l-12 -89 -98 0 -99 0 6 38 c4 20 16 65 27 100 l20 62 84 0 c56 0
84 -4 84 -11z m300 -89 l0 -100 -121 0 -121 0 7 63 c4 34 11 79 16 100 l10 37
104 0 105 0 0 -100z m307 20 c21 -132 31 -120 -107 -120 l-120 0 0 100 0 101
108 -3 107 -3 12 -75z m261 18 c11 -35 23 -80 27 -100 l6 -38 -99 0 -99 0 -12
88 c-6 49 -11 94 -11 100 0 8 26 12 84 12 l84 0 20 -62z m-879 -306 c6 -49 11
-94 11 -100 0 -8 -26 -12 -84 -12 l-84 0 -20 63 c-11 34 -23 79 -27 100 l-6
37 99 0 99 0 12 -88z m311 -12 l0 -101 -107 3 -108 3 -12 75 c-21 132 -31 120
107 120 l120 0 0 -100z m319 78 c0 -13 -6 -57 -12 -98 l-12 -75 -107 -3 -108
-3 0 101 0 100 120 0 c118 0 120 0 119 -22z m276 -15 c-4 -21 -16 -66 -27
-100 l-20 -63 -84 0 c-58 0 -84 4 -84 12 0 6 5 51 11 100 l12 88 99 0 99 0 -6
-37z m-851 -289 c8 -25 29 -68 46 -95 16 -27 26 -49 22 -49 -36 1 -222 151
-222 180 0 6 31 10 69 10 l69 0 16 -46z m256 -69 c0 -63 -3 -115 -8 -115 -4 0
-24 11 -44 25 -42 28 -89 92 -118 160 l-19 45 94 0 95 0 0 -115z m250 70 c-29
-68 -76 -132 -118 -160 -20 -14 -40 -25 -44 -25 -5 0 -8 52 -8 115 l0 115 95
0 94 0 -19 -45z m240 35 c0 -29 -186 -179 -222 -180 -4 0 5 21 21 48 16 26 36
68 46 95 l18 47 68 0 c38 0 69 -4 69 -10z m-420 -605 c26 -32 -13 -81 -47 -59
-35 22 -23 74 17 74 10 0 23 -7 30 -15z m-682 -357 c8 -8 12 -54 12 -140 l0
-128 -280 0 -280 0 0 128 c0 86 4 132 12 140 17 17 519 17 536 0z m920 0 c8
-8 12 -54 12 -140 l0 -128 -280 0 -280 0 0 128 c0 86 4 132 12 140 17 17 519
17 536 0z m920 0 c8 -8 12 -54 12 -140 l0 -128 -280 0 -280 0 0 128 c0 86 4
132 12 140 17 17 519 17 536 0z m-1828 -356 c0 -29 -30 -32 -280 -32 -250 0
-280 3 -280 32 0 4 126 8 280 8 154 0 280 -4 280 -8z m920 0 c0 -29 -30 -32
-280 -32 -250 0 -280 3 -280 32 0 4 126 8 280 8 154 0 280 -4 280 -8z m920 0
c0 -29 -30 -32 -280 -32 -250 0 -280 3 -280 32 0 4 126 8 280 8 154 0 280 -4
280 -8z m-2066 -136 c3 -13 9 -31 12 -40 5 -14 -4 -16 -66 -16 -69 0 -71 1
-65 23 4 12 9 30 11 40 4 13 16 17 54 17 42 0 49 -3 54 -24z m920 0 c3 -13 9
-31 12 -40 5 -14 -4 -16 -66 -16 -69 0 -71 1 -65 23 4 12 9 30 11 40 4 13 16
17 54 17 42 0 49 -3 54 -24z m920 4 c3 -11 9 -29 12 -40 5 -19 1 -20 -66 -20
-62 0 -71 2 -66 16 3 9 9 27 12 40 5 21 12 24 54 24 40 0 50 -4 54 -20z"/>
</g>
</svg>
