<?xml version="1.0" standalone="no"?>
<!DOCTYPE svg PUBLIC "-//W3C//DTD SVG 20010904//EN"
 "http://www.w3.org/TR/2001/REC-SVG-20010904/DTD/svg10.dtd">
<svg version="1.0" xmlns="http://www.w3.org/2000/svg"
 width="860.000000pt" height="854.000000pt" viewBox="0 0 860.000000 854.000000"
 preserveAspectRatio="xMidYMid meet">

<g transform="translate(0.000000,854.000000) scale(0.100000,-0.100000)"
fill="#000000" stroke="none">
<path d="M1918 8116 c-49 -18 -73 -34 -188 -125 -129 -102 -447 -421 -553
-556 -361 -455 -608 -997 -712 -1560 -104 -565 -77 -1128 81 -1670 209 -722
632 -1346 1229 -1814 108 -85 160 -105 256 -99 149 11 253 126 252 278 -1 111
-31 157 -182 278 -124 99 -331 301 -433 422 -493 586 -739 1328 -697 2104 34
638 252 1214 650 1717 105 134 355 382 487 484 115 88 156 141 172 221 43 206
-166 390 -362 320z"/>
<path d="M6517 8116 c-138 -51 -216 -184 -187 -320 16 -80 57 -133 172 -221
132 -102 382 -350 487 -484 399 -504 614 -1073 650 -1718 34 -607 -111 -1200
-422 -1718 -175 -293 -437 -591 -709 -808 -122 -97 -152 -134 -173 -212 -14
-51 -15 -71 -6 -114 29 -138 119 -219 252 -229 94 -6 146 14 254 99 245 192
475 427 662 674 541 718 789 1636 687 2545 -81 720 -369 1383 -834 1925 -172
199 -515 512 -625 567 -51 27 -156 34 -208 14z"/>
<path d="M2838 7186 c-53 -19 -217 -131 -329 -225 -431 -360 -710 -865 -795
-1436 -24 -161 -24 -466 -1 -626 58 -396 206 -758 435 -1062 201 -267 559
-571 722 -613 132 -34 265 34 322 164 31 69 23 183 -17 247 -32 51 -51 67
-206 175 -119 82 -304 267 -392 390 -80 113 -195 339 -236 465 -89 271 -109
612 -51 895 89 438 355 833 727 1081 43 28 93 66 112 83 108 100 109 289 1
396 -73 74 -194 101 -292 66z"/>
<path d="M5571 7183 c-61 -22 -133 -96 -154 -158 -25 -71 -22 -159 7 -220 28
-59 64 -94 169 -164 372 -248 638 -643 727 -1081 58 -283 38 -624 -51 -895
-41 -126 -156 -352 -236 -465 -88 -123 -273 -308 -392 -390 -155 -108 -174
-124 -206 -175 -40 -64 -48 -178 -17 -247 57 -130 190 -198 322 -164 163 42
521 346 722 613 229 304 377 666 435 1062 23 160 23 465 -1 626 -78 524 -318
990 -693 1345 -108 102 -260 219 -366 283 -62 36 -77 41 -145 44 -53 2 -91 -2
-121 -14z"/>
<path d="M4153 6076 c-198 -38 -349 -121 -490 -269 -297 -313 -317 -803 -47
-1143 92 -116 228 -220 356 -270 l48 -19 2 -1880 c3 -1760 4 -1882 20 -1918
28 -62 73 -111 130 -143 46 -25 63 -29 133 -29 70 0 87 4 133 29 57 32 102 81
130 143 16 36 17 158 20 1918 l2 1880 48 19 c128 50 264 154 356 270 270 340
250 830 -47 1143 -123 129 -260 211 -422 253 -103 27 -275 34 -372 16z"/>
</g>
</svg>
