<svg id="Logo" xmlns="http://www.w3.org/2000/svg" viewBox="0 0 160 79"><defs><style>.cls-1{fill:#fff;}.cls-2{fill:#9b9a9a;}</style></defs><title>finalframe-logo</title><g id="BlackLetters"><path class="cls-1" d="M117.24,27.865h-11l-2.121,7.4H95.234L107.224,0h9.08l11.988,35.262h-8.88ZM111.713,8.039s-0.789,3.846-1.43,6.066l-2.022,6.854h6.957l-1.975-6.854c-0.641-2.22-1.43-6.066-1.43-6.066h-0.1Z"/><path class="cls-1" d="M137.738,0h8.434V27.865H160v7.4H137.738V0Z"/><path class="cls-1" d="M0,44.455H21.173V51.7H8.46v7.25H19V66.2H8.46V79H0V44.455Z"/><path class="cls-1" d="M26.693,44.455H38.728c3.529,0,5.221.242,6.719,0.821,3.916,1.5,6.38,5.025,6.38,10.05,0,3.671-1.74,7.682-5.172,9.419v0.1a19.90025,19.90025,0,0,1,1.3,2.079L54.68,79H45.255l-6.14-11.644H35.152V79H26.693V44.455ZM38.825,60.108c2.707,0,4.4-1.5,4.4-4.251,0-2.61-.967-4.156-5.221-4.156H35.152v8.406h3.673v0.001Z"/><path class="cls-1" d="M80.064,71.752H69.285L67.207,79h-8.7L70.252,44.455h8.9L90.892,79h-8.7ZM74.65,52.329s-0.773,3.77-1.4,5.944l-1.981,6.715h6.815l-1.935-6.715c-0.628-2.174-1.4-5.944-1.4-5.944H74.65Z"/><path class="cls-1" d="M98.033,44.455h9.186l5.026,14.592c0.773,2.222,1.741,5.7,1.741,5.7h0.1s0.965-3.478,1.739-5.7l5.028-14.592h9.184L132.836,79h-8.459l-1.062-15.557a51.23241,51.23241,0,0,1,0-5.8h-0.1s-1.161,3.623-1.935,5.8l-3.625,10h-7.252l-3.625-10c-0.773-2.174-1.932-5.8-1.932-5.8h-0.1a51.81983,51.81983,0,0,1,0,5.8L103.689,79H95.181Z"/><path class="cls-1" d="M137.738,44.455H160V51.7H146.2v6.281h10.537v7.248H146.2V71.75H160V79H137.738V44.455Z"/></g><g id="WhiteLetters"><path class="cls-2" d="M0,0H21.612V7.4H8.636v7.4H19.391v7.4H8.636V35.262H0V0Z"/><path class="cls-2" d="M34.355,0h8.683V35.262H34.355V0Z"/><path class="cls-2" d="M56.651,0h8.734l9.768,16.473a62.83724,62.83724,0,0,1,2.962,6.016h0.1s-0.394-3.8-.394-6.016V0h8.635V35.262H77.768L67.948,18.84a63.13344,63.13344,0,0,1-2.96-6.017h-0.1s0.4,3.8.4,6.017V35.262H56.651V0Z"/></g></svg>