<svg xmlns="http://www.w3.org/2000/svg" x="0px" y="0px" viewBox="0 0 212.67 87.33" style="enable-background:new 0 0 212.67 87.33" xml:space="preserve"><style>.st0{fill:none;}
	.st1{fill:#00486B;}
	.st2{fill:url(#SVGID_1_);}
	.st3{fill:url(#SVGID_00000131360444532544016900000016793655681152723357_);}</style><g id="Woordmerk"><path class="st0" d="M0 0h212.67v87.33H0z"/><path class="st1" d="M59.56 41.34h3.99c4.5 0 6.63 1.27 6.63 5.12 0 2.4-.84 3.79-2.55 4.5l3.17 5.44v.06h-1.6c-1.07 0-1.51 0-2.04-.91l-2.33-3.97H62.3v4.88h-2.75V41.34zm4.14 2.28h-1.4v5.68h1.4c2.44 0 3.59-.56 3.59-2.84.01-2.31-1.14-2.84-3.59-2.84zm13.58 1.53c3.44 0 5.19 1.82 5.19 5.77 0 3.95-1.75 5.77-5.19 5.77-3.44 0-5.19-1.82-5.19-5.77 0-3.95 1.76-5.77 5.19-5.77zm0 9.45c1.71 0 2.49-1.16 2.49-3.68 0-2.53-.78-3.68-2.49-3.68-1.73 0-2.48 1.15-2.48 3.68 0 2.53.75 3.68 2.48 3.68zM86 60.37l1.46-3.91-4.13-11.02v-.07h2.51l1.93 5.35c.42 1.18.69 2.06.93 3.08h.04c.24-1.02.51-1.97.91-3.08l1.95-5.35h2.6v.07l-5.32 14.2c-.29.8-1.02.8-2.09.8H86v-.07zm18.88-11.45v7.54h-.62c-.67-.22-1.18-.51-1.46-.75-.67.58-1.62.98-3.31.98-2.79 0-4.24-1.04-4.24-3.68 0-2.62 1.44-3.66 4.32-3.66 1.07 0 1.95.18 2.69.4v-.6c0-1.42-.55-1.77-2.51-1.77-1.29 0-2.37.16-3.66.4l-.25-2.13c1.33-.29 2.42-.49 4.37-.49 3.23-.01 4.67 1.06 4.67 3.76zm-2.61 5.19v-2.48c-.64-.18-1.35-.29-2.35-.29-1.49 0-1.95.69-1.95 1.66 0 1 .46 1.69 1.95 1.69a4.8 4.8 0 0 0 2.35-.58zm5.54-.06V43.49c0-1.04 0-1.73 2.62-2.37v12.24c0 .73.33.93.84.93.29 0 .51-.02.75-.04l.09 2.13c-.53.13-1.27.2-2.04.2-1.39 0-2.26-.73-2.26-2.53zm-40.2 16.18h-5.3v6.52h-2.75V61.62h2.75v6.32h5.3v-6.32h2.75v15.13h-2.75v-6.52zm15.13-1.03v7.54h-.62c-.66-.22-1.18-.51-1.46-.75-.66.58-1.62.97-3.3.97-2.8 0-4.24-1.04-4.24-3.68 0-2.62 1.44-3.66 4.33-3.66 1.06 0 1.95.18 2.68.4v-.6c0-1.42-.55-1.78-2.51-1.78-1.29 0-2.37.16-3.66.4l-.24-2.13c1.33-.29 2.42-.49 4.37-.49 3.21.01 4.65 1.08 4.65 3.78zm-2.62 5.2v-2.49c-.64-.18-1.35-.29-2.35-.29-1.49 0-1.95.69-1.95 1.66 0 1 .47 1.69 1.95 1.69 1.09 0 1.8-.29 2.35-.57zm5.11 2.08.24-2.09c1.29.24 2.15.4 3.44.4 1.51 0 2.31-.31 2.31-1.15 0-.96-1.49-1.15-2.84-1.46-1.31-.31-2.97-.73-2.97-3.33 0-2.2 1.33-3.42 4.28-3.42 1.69 0 2.71.2 3.84.49l-.24 2.09c-1.11-.24-1.91-.4-3.13-.4-1.51 0-2.08.31-2.08 1.11 0 1 1.27 1.15 2.62 1.51 1.31.35 3.19.73 3.19 3.24 0 2.29-1.55 3.51-4.5 3.51-1.88-.01-2.92-.21-4.16-.5zM96.5 63.77c0-1.04 0-1.73 2.62-2.38v15.35H96.5V63.77zm6.34 1.89h3.02v.07l-3.46 5.1 3.55 5.86v.06h-1.64c-.66 0-1.4 0-1.97-.95l-2.93-4.81 3.43-5.33zm9.5-.23c3.44 0 5.19 1.82 5.19 5.77 0 3.95-1.75 5.77-5.19 5.77-3.44 0-5.19-1.82-5.19-5.77 0-3.95 1.75-5.77 5.19-5.77zm0 9.45c1.71 0 2.48-1.15 2.48-3.68 0-2.53-.78-3.68-2.48-3.68-1.73 0-2.48 1.15-2.48 3.68 0 2.53.75 3.68 2.48 3.68zm7.72-9.22h.62c.51.18.84.33 1.15.53.69-.45 1.71-.76 3.15-.76 2.95 0 4.4 1.07 4.4 4.48v6.83h-2.62v-6.43c0-2.09-.55-2.66-2.04-2.66-.91 0-1.53.2-2.04.45v8.65h-2.62V65.66zm12.25-4.04h2.62v2.66h-2.62v-2.66zm0 4.04h2.62v11.09h-2.62V65.66zm5.68 0h.62c.51.18.84.33 1.15.53.69-.45 1.71-.76 3.15-.76 2.95 0 4.39 1.07 4.39 4.48v6.83h-2.62v-6.43c0-2.09-.56-2.66-2.04-2.66-.91 0-1.53.2-2.04.45v8.65h-2.62V65.66zm11.71 5.32c0-4.39 1.6-5.55 4.55-5.55 1.44 0 2.46.31 3.15.76.31-.2.64-.36 1.15-.53h.62v11.29c0 2.71-1.44 3.77-4.66 3.77-1.95 0-3.04-.2-4.37-.49l.24-2.13c1.29.24 2.38.4 3.66.4 1.95 0 2.5-.36 2.5-1.78v-.82c-.6.4-1.37.58-2.3.58-2.94 0-4.54-1.15-4.54-5.5zm6.86 2.86V68.1a4.6 4.6 0 0 0-2.04-.45c-1.49 0-2.11.58-2.11 3.33 0 2.71.62 3.28 2.11 3.28.88 0 1.53-.2 2.04-.42zm5.94-12.22h4.57c4.5 0 6.81 2.37 6.81 7.56 0 5.17-2.31 7.56-6.81 7.56h-4.57V61.62zm4.73 2.28h-1.98v10.56h1.98c2.44 0 3.77-1.66 3.77-5.28 0-3.64-1.33-5.28-3.77-5.28zm17.55 6.33h-5.3v6.52h-2.75V61.62h2.75v6.32h5.3v-6.32h2.75v15.13h-2.75v-6.52zm4.9-8.55v-.07h2.86l2.4 8.16c.42 1.4.73 2.86.93 3.88h.04c.18-1.02.49-2.48.91-3.88L199 62.5c.25-.8 1.06-.89 2.13-.89h.95v.07l-4.75 15.06h-2.9l-4.75-15.06z"/></g><g id="Beeldmerk"><radialGradient id="SVGID_1_" cx="48.568" cy="49.8579" r="36.24" gradientUnits="userSpaceOnUse"><stop offset="0.2883" style="stop-color:#C7D300"/><stop offset="0.9877" style="stop-color:#0086A7"/></radialGradient><path class="st2" d="m42.23 43.1-8.97 7.63 2.57-14.83-13.42-12.38 14.83 4.28C26.13 14.95 10.6 17.59 10.6 17.59s3.77 13 18.13 18.99c-4.69 8.2-3.87 16.68-.53 25.04l13.76-12.36c.6.72 1.68 1.79 3.74 2.62 1.93.78 4.61 1.16 7.49.04L42.23 43.1z"/><radialGradient id="SVGID_00000047766560393974966160000012631862301132985250_" cx="48.5671" cy="49.8582" r="36.241" gradientUnits="userSpaceOnUse"><stop offset="0.2883" style="stop-color:#C7D300"/><stop offset="0.9877" style="stop-color:#0086A7"/></radialGradient><path style="fill:url(#SVGID_00000047766560393974966160000012631862301132985250_)" d="m45.38 23.94 1.59-12.79c-3.58-1.27-7.05-.24-9.34 2.05-3.24 3.23-3.6 8.84 0 12.38l1.61-9.28 5.34 13.61 9.8 2.83-6.55 5.63c12.9-1.24 18.14-10.66 18.14-10.66l-20.59-3.77z"/></g></svg>
